<svg width="128" height="126" viewBox="0 0 128 126" fill="none" xmlns="http://www.w3.org/2000/svg">
<path d="M64 0.477051H0V125.523H64C81.6729 125.523 97.6721 118.526 109.255 107.21C120.837 95.8951 128 80.2652 128 63.0001C128 28.47 99.3458 0.477051 64 0.477051ZM64 109.51C37.7065 109.51 16.3912 88.6869 16.3912 63.0001C16.3912 37.3134 37.7065 16.49 64 16.49C90.2935 16.49 111.609 37.3134 111.609 63.0001C111.609 88.6869 90.2935 109.51 64 109.51Z" fill="#202020"/>
<path d="M77.5923 35.605L86.5776 35.4624L88.4272 44.0542L96.5933 47.7202L94.4438 56.2446L100.16 63.0171L94.4438 69.7896L96.5933 78.314L88.4272 81.9819L86.5776 90.5728L77.5923 90.4292L72.1099 97.3862L64.0825 93.4341L56.0552 97.3862L50.5728 90.4292L41.5874 90.5728L39.7378 81.98L31.5718 78.314L33.7222 69.7896L28.0054 63.0171L33.7222 56.2446L31.5718 47.7202L39.7378 44.0522L41.5874 35.4624L50.5728 35.605L56.0552 28.6479L64.0825 32.6001L72.1099 28.6479L77.5923 35.605ZM82.6567 47.2847C80.4051 45.085 76.7541 45.085 74.5024 47.2847L72.814 48.9341C70.5623 51.1338 70.5623 54.7002 72.814 56.8999C75.0656 59.0996 78.7156 59.0996 80.9673 56.8999L82.6567 55.2505C84.9083 53.0508 84.9082 49.4844 82.6567 47.2847Z" fill="#202020"/>
</svg>
