<svg width="240" height="76" viewBox="0 0 240 76" fill="none" xmlns="http://www.w3.org/2000/svg">
<g clip-path="url(#clip0_4595_1179)">
<path d="M30.6452 7.35596H0V68.6463H30.6452C39.1075 68.6463 46.7684 65.2165 52.3145 59.6704C57.8606 54.1243 61.2903 46.4634 61.2903 38.0011C61.2903 21.0765 47.5698 7.35596 30.6452 7.35596ZM30.6452 60.7976C18.055 60.7976 7.84863 50.5913 7.84863 38.0011C7.84863 25.411 18.055 15.2046 30.6452 15.2046C43.2353 15.2046 53.4417 25.411 53.4417 38.0011C53.4417 50.5913 43.2353 60.7976 30.6452 60.7976Z" fill="#202020"/>
<path d="M37.1538 24.5259L41.4556 24.4556L42.3413 28.6665L46.2515 30.4644L45.2222 34.6421L47.9595 37.9614L45.2222 41.2808L46.2515 45.4595L42.3413 47.2563L41.4556 51.4673L37.1538 51.397L34.5288 54.8071L30.6841 52.8696L26.8403 54.8071L24.2153 51.397L19.9136 51.4673L19.0278 47.2563L15.1177 45.4595L16.147 41.2808L13.4097 37.9614L16.147 34.6421L15.1177 30.4644L19.0278 28.6665L19.9136 24.4556L24.2153 24.5259L26.8403 21.1157L30.6841 23.0532L34.5288 21.1157L37.1538 24.5259ZM39.5786 30.2515C38.5004 29.1734 36.7525 29.1733 35.6743 30.2515L34.8657 31.0601C33.7876 32.1382 33.7877 33.8862 34.8657 34.9644C35.9439 36.0425 37.6918 36.0425 38.77 34.9644L39.5786 34.1558C40.6568 33.0776 40.6568 31.3296 39.5786 30.2515Z" fill="#202020"/>
</g>
<path d="M88.925 30.353C87.5913 30.353 86.3753 30.1275 85.277 29.6764C84.1982 29.2057 83.2666 28.529 82.4821 27.6465C81.7172 26.7443 81.119 25.6361 80.6875 24.3221C80.2757 22.9884 80.0697 21.4586 80.0697 19.7326C80.0697 18.0067 80.2757 16.4867 80.6875 15.1726C81.119 13.839 81.7172 12.7308 82.4821 11.8483C83.2666 10.9461 84.1982 10.2694 85.277 9.81832C86.3753 9.34761 87.5913 9.11226 88.925 9.11226C90.2586 9.11226 91.4648 9.34761 92.5435 9.81832C93.6419 10.2694 94.5735 10.9461 95.3384 11.8483C96.1229 12.7308 96.7211 13.839 97.133 15.1726C97.5644 16.4867 97.7802 18.0067 97.7802 19.7326C97.7802 21.4586 97.5644 22.9884 97.133 24.3221C96.7211 25.6361 96.1229 26.7443 95.3384 27.6465C94.5735 28.529 93.6419 29.2057 92.5435 29.6764C91.4648 30.1275 90.2586 30.353 88.925 30.353ZM88.925 27.3817C89.7095 27.3817 90.4253 27.2444 91.0726 26.9698C91.7394 26.6952 92.2984 26.303 92.7495 25.793C93.2202 25.2635 93.583 24.6261 93.838 23.8808C94.093 23.1355 94.2204 22.2921 94.2204 21.3507V18.1146C94.2204 17.1732 94.093 16.3298 93.838 15.5845C93.583 14.8392 93.2202 14.2116 92.7495 13.7017C92.2984 13.1721 91.7394 12.7701 91.0726 12.4955C90.4253 12.2209 89.7095 12.0836 88.925 12.0836C88.1208 12.0836 87.3951 12.2209 86.7479 12.4955C86.1007 12.7701 85.5417 13.1721 85.071 13.7017C84.6199 14.2116 84.2669 14.8392 84.0119 15.5845C83.757 16.3298 83.6295 17.1732 83.6295 18.1146V21.3507C83.6295 22.2921 83.757 23.1355 84.0119 23.8808C84.2669 24.6261 84.6199 25.2635 85.071 25.793C85.5417 26.303 86.1007 26.6952 86.7479 26.9698C87.3951 27.2444 88.1208 27.3817 88.925 27.3817ZM101.69 30V14.7019H104.897V17.232H105.044C105.201 16.8397 105.387 16.4671 105.603 16.1141C105.839 15.761 106.113 15.457 106.427 15.2021C106.76 14.9275 107.143 14.7215 107.574 14.5843C108.025 14.4274 108.545 14.3489 109.134 14.3489C110.173 14.3489 111.095 14.6039 111.899 15.1138C112.703 15.6237 113.291 16.4083 113.664 17.4674H113.752C114.027 16.6044 114.556 15.8689 115.341 15.2609C116.126 14.6529 117.136 14.3489 118.371 14.3489C119.901 14.3489 121.088 14.8686 121.931 15.9081C122.774 16.928 123.196 18.3892 123.196 20.2916V30H119.989V20.6741C119.989 19.4973 119.764 18.6147 119.313 18.0263C118.862 17.4183 118.146 17.1143 117.165 17.1143C116.753 17.1143 116.361 17.1732 115.988 17.2908C115.616 17.3889 115.282 17.5458 114.988 17.7615C114.713 17.9773 114.488 18.2519 114.311 18.5853C114.135 18.9187 114.047 19.3012 114.047 19.7326V30H110.84V20.6741C110.84 18.3009 109.908 17.1143 108.045 17.1143C107.653 17.1143 107.26 17.1732 106.868 17.2908C106.496 17.3889 106.162 17.5458 105.868 17.7615C105.574 17.9773 105.338 18.2519 105.162 18.5853C104.985 18.9187 104.897 19.3012 104.897 19.7326V30H101.69ZM127.633 30V14.7019H130.84V17.232H130.987C131.321 16.4083 131.821 15.7218 132.488 15.1726C133.174 14.6235 134.106 14.3489 135.283 14.3489C136.852 14.3489 138.068 14.8686 138.931 15.9081C139.813 16.928 140.254 18.3892 140.254 20.2916V30H137.048V20.7035C137.048 18.3107 136.087 17.1143 134.165 17.1143C133.753 17.1143 133.341 17.1732 132.929 17.2908C132.537 17.3889 132.184 17.5458 131.87 17.7615C131.556 17.9773 131.301 18.2519 131.105 18.5853C130.928 18.9187 130.84 19.311 130.84 19.7621V30H127.633ZM146.317 11.9659C145.65 11.9659 145.16 11.809 144.846 11.4952C144.552 11.1814 144.405 10.7794 144.405 10.289V9.7889C144.405 9.29858 144.552 8.89652 144.846 8.58271C145.16 8.2689 145.65 8.112 146.317 8.112C146.984 8.112 147.464 8.2689 147.759 8.58271C148.053 8.89652 148.2 9.29858 148.2 9.7889V10.289C148.2 10.7794 148.053 11.1814 147.759 11.4952C147.464 11.809 146.984 11.9659 146.317 11.9659ZM144.699 14.7019H147.906V30H144.699V14.7019ZM157.339 30.353C155.888 30.353 154.672 30.0981 153.691 29.5881C152.71 29.0782 151.857 28.3721 151.131 27.4699L153.191 25.5871C153.76 26.2735 154.387 26.8129 155.074 27.2052C155.78 27.5778 156.594 27.7641 157.515 27.7641C158.457 27.7641 159.153 27.5876 159.604 27.2346C160.075 26.8619 160.31 26.352 160.31 25.7048C160.31 25.2145 160.144 24.8026 159.81 24.4692C159.496 24.1161 158.937 23.8906 158.133 23.7925L156.721 23.616C155.152 23.4199 153.917 22.9688 153.014 22.2627C152.132 21.537 151.69 20.4681 151.69 19.056C151.69 18.3107 151.828 17.6537 152.102 17.0849C152.377 16.4965 152.759 16.0062 153.25 15.6139C153.76 15.2021 154.358 14.8883 155.044 14.6725C155.75 14.4568 156.525 14.3489 157.368 14.3489C158.741 14.3489 159.859 14.5646 160.722 14.9961C161.605 15.4276 162.389 16.0258 163.076 16.7907L161.105 18.6735C160.712 18.2028 160.193 17.8008 159.545 17.4674C158.918 17.1143 158.192 16.9378 157.368 16.9378C156.486 16.9378 155.829 17.1143 155.397 17.4674C154.985 17.8204 154.779 18.2813 154.779 18.8501C154.779 19.4385 154.966 19.8797 155.338 20.1739C155.711 20.4681 156.309 20.6839 157.133 20.8212L158.545 20.9977C160.232 21.2526 161.458 21.7528 162.223 22.4981C163.007 23.2237 163.399 24.2044 163.399 25.44C163.399 26.1853 163.252 26.8619 162.958 27.4699C162.683 28.0583 162.281 28.5683 161.752 28.9997C161.222 29.4312 160.585 29.7646 159.84 30C159.094 30.2354 158.261 30.353 157.339 30.353ZM172.935 30.353C171.837 30.353 170.856 30.1667 169.993 29.7941C169.13 29.4214 168.405 28.8919 167.816 28.2054C167.228 27.4994 166.777 26.656 166.463 25.6754C166.149 24.6751 165.992 23.567 165.992 22.351C165.992 21.135 166.149 20.0366 166.463 19.056C166.777 18.0557 167.228 17.2124 167.816 16.5259C168.405 15.8199 169.13 15.2805 169.993 14.9079C170.856 14.5352 171.837 14.3489 172.935 14.3489C174.465 14.3489 175.72 14.6921 176.701 15.3786C177.682 16.065 178.398 16.977 178.849 18.1146L176.201 19.3502C175.985 18.6441 175.603 18.0852 175.054 17.6733C174.524 17.2418 173.818 17.0261 172.935 17.0261C171.759 17.0261 170.866 17.3987 170.258 18.144C169.67 18.8697 169.376 19.8209 169.376 20.9977V23.7337C169.376 24.9105 169.67 25.8715 170.258 26.6168C170.866 27.3425 171.759 27.7053 172.935 27.7053C173.877 27.7053 174.622 27.4797 175.171 27.0286C175.74 26.5579 176.191 25.9401 176.525 25.1752L178.966 26.4697C178.456 27.7249 177.692 28.6859 176.672 29.3528C175.652 30.0196 174.406 30.353 172.935 30.353ZM183.637 11.9659C182.97 11.9659 182.48 11.809 182.166 11.4952C181.872 11.1814 181.725 10.7794 181.725 10.289V9.7889C181.725 9.29858 181.872 8.89652 182.166 8.58271C182.48 8.2689 182.97 8.112 183.637 8.112C184.304 8.112 184.784 8.2689 185.079 8.58271C185.373 8.89652 185.52 9.29858 185.52 9.7889V10.289C185.52 10.7794 185.373 11.1814 185.079 11.4952C184.784 11.809 184.304 11.9659 183.637 11.9659ZM182.019 14.7019H185.226V30H182.019V14.7019ZM195.806 30.353C194.708 30.353 193.727 30.1667 192.864 29.7941C192.001 29.4214 191.266 28.8919 190.658 28.2054C190.05 27.4994 189.579 26.656 189.246 25.6754C188.932 24.6751 188.775 23.567 188.775 22.351C188.775 21.135 188.932 20.0366 189.246 19.056C189.579 18.0557 190.05 17.2124 190.658 16.5259C191.266 15.8199 192.001 15.2805 192.864 14.9079C193.727 14.5352 194.708 14.3489 195.806 14.3489C196.924 14.3489 197.905 14.545 198.748 14.9373C199.611 15.3295 200.327 15.8787 200.896 16.5848C201.465 17.2712 201.886 18.0754 202.161 18.9972C202.455 19.919 202.602 20.9094 202.602 21.9685V23.1747H192.1V23.6748C192.1 24.8516 192.443 25.8225 193.129 26.5874C193.835 27.3326 194.836 27.7053 196.13 27.7053C197.071 27.7053 197.866 27.4994 198.513 27.0875C199.16 26.6756 199.709 26.1166 200.16 25.4106L202.043 27.264C201.475 28.2054 200.651 28.9605 199.572 29.5293C198.493 30.0785 197.238 30.353 195.806 30.353ZM195.806 16.8495C195.257 16.8495 194.747 16.9476 194.277 17.1437C193.825 17.3399 193.433 17.6145 193.1 17.9675C192.786 18.3205 192.541 18.7422 192.364 19.2325C192.188 19.7228 192.1 20.2622 192.1 20.8506V21.0565H199.219V20.7623C199.219 19.5855 198.915 18.6441 198.307 17.9381C197.699 17.2124 196.865 16.8495 195.806 16.8495ZM206.152 30V14.7019H209.359V17.232H209.506C209.839 16.4083 210.339 15.7218 211.006 15.1726C211.693 14.6235 212.624 14.3489 213.801 14.3489C215.37 14.3489 216.586 14.8686 217.449 15.9081C218.332 16.928 218.773 18.3892 218.773 20.2916V30H215.566V20.7035C215.566 18.3107 214.605 17.1143 212.683 17.1143C212.271 17.1143 211.859 17.1732 211.448 17.2908C211.055 17.3889 210.702 17.5458 210.389 17.7615C210.075 17.9773 209.82 18.2519 209.624 18.5853C209.447 18.9187 209.359 19.311 209.359 19.7621V30H206.152ZM227.454 30C226.336 30 225.493 29.7156 224.924 29.1468C224.355 28.5585 224.071 27.7347 224.071 26.6756V17.3203H221.688V14.7019H222.982C223.512 14.7019 223.875 14.5843 224.071 14.3489C224.287 14.1135 224.394 13.7311 224.394 13.2015V10.5244H227.278V14.7019H230.484V17.3203H227.278V27.3817H230.249V30H227.454ZM80.9817 47.4653H88.2483C89.5624 47.4653 90.749 47.681 91.808 48.1125C92.8868 48.544 93.7988 49.1912 94.544 50.0542C95.309 50.8975 95.8973 51.9665 96.3092 53.2609C96.7211 54.5357 96.927 56.0263 96.927 57.7326C96.927 59.439 96.7211 60.9394 96.3092 62.2338C95.8973 63.5086 95.309 64.5775 94.544 65.4405C93.7988 66.2839 92.8868 66.9213 91.808 67.3528C90.749 67.7843 89.5624 68 88.2483 68H80.9817V47.4653ZM88.2483 65.0581C89.7781 65.0581 91.0137 64.5775 91.9551 63.6165C92.8966 62.6555 93.3673 61.2434 93.3673 59.3801V56.0852C93.3673 54.2219 92.8966 52.8098 91.9551 51.8488C91.0137 50.8877 89.7781 50.4072 88.2483 50.4072H84.3061V65.0581H88.2483ZM106.83 68.353C105.732 68.353 104.751 68.1667 103.888 67.7941C103.025 67.4214 102.29 66.8919 101.682 66.2054C101.074 65.4994 100.603 64.656 100.27 63.6754C99.9558 62.6751 99.7988 61.567 99.7988 60.351C99.7988 59.135 99.9558 58.0366 100.27 57.056C100.603 56.0557 101.074 55.2124 101.682 54.5259C102.29 53.8199 103.025 53.2805 103.888 52.9079C104.751 52.5352 105.732 52.3489 106.83 52.3489C107.948 52.3489 108.929 52.545 109.772 52.9373C110.635 53.3295 111.351 53.8787 111.92 54.5848C112.488 55.2712 112.91 56.0754 113.185 56.9972C113.479 57.919 113.626 58.9094 113.626 59.9685V61.1747H103.123V61.6748C103.123 62.8516 103.466 63.8225 104.153 64.5874C104.859 65.3326 105.859 65.7053 107.154 65.7053C108.095 65.7053 108.889 65.4994 109.537 65.0875C110.184 64.6756 110.733 64.1166 111.184 63.4106L113.067 65.264C112.498 66.2054 111.674 66.9605 110.596 67.5293C109.517 68.0785 108.262 68.353 106.83 68.353ZM106.83 54.8495C106.281 54.8495 105.771 54.9476 105.3 55.1437C104.849 55.3399 104.457 55.6145 104.123 55.9675C103.81 56.3205 103.565 56.7422 103.388 57.2325C103.211 57.7228 103.123 58.2622 103.123 58.8506V59.0565H110.243V58.7623C110.243 57.5855 109.939 56.6441 109.331 55.9381C108.723 55.2124 107.889 54.8495 106.83 54.8495ZM122.03 68.353C120.579 68.353 119.363 68.0981 118.382 67.5881C117.401 67.0782 116.548 66.3721 115.823 65.4699L117.882 63.5871C118.451 64.2735 119.078 64.8129 119.765 65.2052C120.471 65.5778 121.285 65.7641 122.207 65.7641C123.148 65.7641 123.844 65.5876 124.295 65.2346C124.766 64.8619 125.001 64.352 125.001 63.7048C125.001 63.2145 124.835 62.8026 124.501 62.4692C124.187 62.1161 123.628 61.8906 122.824 61.7925L121.412 61.616C119.843 61.4199 118.608 60.9688 117.705 60.2627C116.823 59.537 116.381 58.4681 116.381 57.056C116.381 56.3107 116.519 55.6537 116.793 55.0849C117.068 54.4965 117.45 54.0062 117.941 53.6139C118.451 53.2021 119.049 52.8883 119.735 52.6725C120.441 52.4568 121.216 52.3489 122.059 52.3489C123.432 52.3489 124.55 52.5646 125.413 52.9961C126.296 53.4276 127.08 54.0258 127.767 54.7907L125.796 56.6735C125.403 56.2028 124.884 55.8008 124.236 55.4674C123.609 55.1143 122.883 54.9378 122.059 54.9378C121.177 54.9378 120.52 55.1143 120.088 55.4674C119.676 55.8204 119.471 56.2813 119.471 56.8501C119.471 57.4385 119.657 57.8797 120.029 58.1739C120.402 58.4681 121 58.6839 121.824 58.8212L123.236 58.9977C124.923 59.2526 126.149 59.7528 126.914 60.4981C127.698 61.2237 128.09 62.2044 128.09 63.44C128.09 64.1853 127.943 64.8619 127.649 65.4699C127.375 66.0583 126.972 66.5683 126.443 66.9997C125.913 67.4312 125.276 67.7646 124.531 68C123.785 68.2354 122.952 68.353 122.03 68.353ZM133.331 49.9659C132.664 49.9659 132.174 49.809 131.86 49.4952C131.566 49.1814 131.419 48.7794 131.419 48.289V47.7889C131.419 47.2986 131.566 46.8965 131.86 46.5827C132.174 46.2689 132.664 46.112 133.331 46.112C133.998 46.112 134.479 46.2689 134.773 46.5827C135.067 46.8965 135.214 47.2986 135.214 47.7889V48.289C135.214 48.7794 135.067 49.1814 134.773 49.4952C134.479 49.809 133.998 49.9659 133.331 49.9659ZM131.713 52.7019H134.92V68H131.713V52.7019ZM152.914 69.4415C152.914 71.0302 152.306 72.2266 151.09 73.0307C149.874 73.8348 147.893 74.2369 145.147 74.2369C143.892 74.2369 142.823 74.1486 141.941 73.9721C141.078 73.8152 140.362 73.5799 139.793 73.2661C139.244 72.9523 138.842 72.5698 138.587 72.1187C138.332 71.6676 138.204 71.1479 138.204 70.5595C138.204 69.7161 138.43 69.0591 138.881 68.5884C139.352 68.1177 139.999 67.7941 140.823 67.6175V67.2939C139.666 66.9213 139.087 66.1368 139.087 64.9404C139.087 64.1559 139.352 63.5577 139.881 63.1458C140.411 62.7143 141.048 62.4103 141.794 62.2338V62.1161C140.891 61.6846 140.195 61.0865 139.705 60.3215C139.234 59.537 138.999 58.625 138.999 57.5855C138.999 56.0165 139.519 54.7515 140.558 53.7905C141.617 52.8294 143.127 52.3489 145.089 52.3489C146.167 52.3489 147.089 52.5058 147.854 52.8196V52.4077C147.854 51.7213 148.011 51.1917 148.325 50.8191C148.658 50.4268 149.168 50.2307 149.855 50.2307H152.208V52.8196H149.09V53.4374C149.776 53.8885 150.306 54.4769 150.678 55.2026C151.051 55.9086 151.237 56.703 151.237 57.5855C151.237 59.135 150.708 60.3902 149.649 61.3512C148.589 62.2926 147.079 62.7634 145.118 62.7634C144.373 62.7634 143.706 62.6849 143.117 62.528C142.725 62.6653 142.382 62.8614 142.088 63.1164C141.794 63.3517 141.647 63.6655 141.647 64.0578C141.647 64.4697 141.833 64.7639 142.205 64.9404C142.578 65.1169 143.108 65.2052 143.794 65.2052H147.56C149.443 65.2052 150.806 65.5876 151.649 66.3525C152.492 67.0978 152.914 68.1275 152.914 69.4415ZM149.913 69.7946C149.913 69.265 149.707 68.8434 149.296 68.5295C148.903 68.2157 148.178 68.0588 147.119 68.0588H141.941C141.235 68.4707 140.882 69.0591 140.882 69.824C140.882 70.4516 141.127 70.9517 141.617 71.3244C142.127 71.7166 142.98 71.9128 144.177 71.9128H146.177C148.668 71.9128 149.913 71.2067 149.913 69.7946ZM145.118 60.4392C146.059 60.4392 146.785 60.2333 147.295 59.8214C147.825 59.3899 148.089 58.7329 148.089 57.8503V57.2619C148.089 56.3794 147.825 55.7321 147.295 55.3203C146.785 54.8888 146.059 54.673 145.118 54.673C144.177 54.673 143.441 54.8888 142.912 55.3203C142.402 55.7321 142.147 56.3794 142.147 57.2619V57.8503C142.147 58.7329 142.402 59.3899 142.912 59.8214C143.441 60.2333 144.177 60.4392 145.118 60.4392ZM155.3 68V52.7019H158.507V55.232H158.654C158.988 54.4083 159.488 53.7218 160.154 53.1726C160.841 52.6235 161.773 52.3489 162.949 52.3489C164.518 52.3489 165.734 52.8686 166.597 53.9081C167.48 54.928 167.921 56.3892 167.921 58.2916V68H164.714V58.7035C164.714 56.3107 163.753 55.1143 161.831 55.1143C161.42 55.1143 161.008 55.1732 160.596 55.2908C160.204 55.3889 159.85 55.5458 159.537 55.7615C159.223 55.9773 158.968 56.2519 158.772 56.5853C158.595 56.9187 158.507 57.311 158.507 57.7621V68H155.3Z" fill="#202020"/>
<defs>
<clipPath id="clip0_4595_1179">
<rect width="61.2903" height="61.2903" fill="white" transform="translate(0 7.35498)"/>
</clipPath>
</defs>
</svg>
