<svg width="128" height="128" viewBox="0 0 128 128" fill="none" xmlns="http://www.w3.org/2000/svg">
<rect width="128" height="128" fill="#202020"/>
<path d="M63.9712 31H30V97.3745H63.9712C73.352 97.3745 81.8443 93.6602 87.9924 87.6541C94.1404 81.6479 97.9424 73.3515 97.9424 64.1872C97.9424 45.8587 82.7327 31 63.9712 31ZM63.9712 88.8748C50.0146 88.8748 38.7005 77.8218 38.7005 64.1872C38.7005 50.5527 50.0146 39.4997 63.9712 39.4997C77.9278 39.4997 89.2419 50.5527 89.2419 64.1872C89.2419 77.8218 77.9278 88.8748 63.9712 88.8748Z" fill="white"/>
<path d="M71.1865 49.6465L75.9551 49.5703L76.9375 54.1309L81.2715 56.0771L80.1309 60.6016L83.165 64.1963L80.1309 67.791L81.2715 72.3154L76.9375 74.2627L75.9551 78.8223L71.1865 78.7461L68.2764 82.4395L64.0146 80.3418L59.7539 82.4395L56.8438 78.7461L52.0752 78.8223L51.0928 74.2617L46.7588 72.3154L47.8994 67.791L44.8652 64.1963L47.8994 60.6016L46.7588 56.0771L51.0928 54.1299L52.0752 49.5703L56.8438 49.6465L59.7539 45.9531L64.0146 48.0508L68.2764 45.9531L71.1865 49.6465ZM73.874 55.8457C72.6788 54.6783 70.741 54.6782 69.5459 55.8457L68.6494 56.7217C67.4542 57.8893 67.4542 59.7826 68.6494 60.9502C69.8446 62.1177 71.7824 62.1177 72.9775 60.9502L73.874 60.0742C75.0692 58.9066 75.0692 57.0133 73.874 55.8457Z" fill="white"/>
</svg>
