<svg width="327" height="126" viewBox="0 0 327 126" fill="none" xmlns="http://www.w3.org/2000/svg">
<path d="M54.4615 126V103.179H0.0947266V86.9029L47.5817 8.87654H72.4159V88.2453H88.3568V103.179H72.4159V126H54.4615ZM16.2034 88.2453H54.4615V26.1598H53.2869L16.2034 88.2453Z" fill="#202020"/>
<path d="M167.403 0H104.956V121.56H167.403C184.647 121.56 200.258 114.757 211.56 103.758C222.862 92.7577 229.851 77.5635 229.851 60.7798C229.851 27.2125 201.891 0 167.403 0ZM167.403 105.993C141.748 105.993 120.95 85.7504 120.95 60.7798C120.95 35.8093 141.748 15.5665 167.403 15.5665C193.059 15.5665 213.857 35.8093 213.857 60.7798C213.857 85.7504 193.059 105.993 167.403 105.993Z" fill="#202020"/>
<path d="M138.247 78.4333L185.28 31.5748L196.419 42.6729L149.386 89.5314L138.247 78.4333Z" fill="#202020"/>
<path d="M196.419 78.4334L149.386 31.5749L138.247 42.673L185.28 89.5315L196.419 78.4334Z" fill="#202020"/>
<path d="M283.613 55.0212C290.885 55.0212 296.254 53.511 299.722 50.4906C303.19 47.3584 304.924 43.3871 304.924 38.5769V37.4023C304.924 32.0328 303.246 27.9497 299.89 25.153C296.534 22.2445 292.003 20.7903 286.298 20.7903C280.705 20.7903 275.95 22.0767 272.035 24.6496C268.12 27.1107 264.82 30.5785 262.135 35.0531L249.55 24.1462C251.34 21.5733 253.354 19.1123 255.591 16.7631C257.828 14.4139 260.457 12.4003 263.477 10.7223C266.498 8.93248 269.91 7.53416 273.713 6.52736C277.517 5.40871 281.879 4.84938 286.801 4.84938C292.283 4.84938 297.373 5.52057 302.071 6.86297C306.769 8.20535 310.797 10.2189 314.153 12.9037C317.509 15.4766 320.137 18.6648 322.039 22.4682C323.941 26.1598 324.892 30.3548 324.892 35.0531C324.892 38.7447 324.276 42.1007 323.046 45.1211C321.927 48.1414 320.305 50.8262 318.18 53.1754C316.166 55.4127 313.761 57.2585 310.964 58.7127C308.28 60.167 305.427 61.2297 302.407 61.9009V62.7399C305.763 63.4111 308.895 64.5298 311.803 66.0959C314.824 67.5501 317.453 69.5078 319.69 71.9688C321.927 74.318 323.661 77.1706 324.892 80.5266C326.234 83.7707 326.905 87.5182 326.905 91.7691C326.905 96.9149 325.899 101.613 323.885 105.864C321.871 110.003 319.019 113.583 315.327 116.603C311.747 119.624 307.385 121.973 302.239 123.651C297.093 125.217 291.388 126 285.123 126C279.642 126 274.832 125.385 270.693 124.154C266.554 123.036 262.862 121.525 259.618 119.624C256.486 117.61 253.689 115.373 251.228 112.912C248.879 110.339 246.809 107.71 245.02 105.025L258.947 94.1183C260.401 96.4674 261.911 98.6488 263.477 100.662C265.155 102.564 267.001 104.242 269.015 105.696C271.14 107.039 273.489 108.101 276.062 108.885C278.747 109.668 281.767 110.059 285.123 110.059C292.283 110.059 297.764 108.381 301.568 105.025C305.371 101.557 307.273 96.803 307.273 90.7623V89.5877C307.273 83.5469 305.259 78.9605 301.232 75.8282C297.205 72.696 291.5 71.1298 284.117 71.1298H271.7V55.0212H283.613Z" fill="#202020"/>
</svg>
