<svg width="339" height="126" viewBox="0 0 339 126" fill="none" xmlns="http://www.w3.org/2000/svg">
<path d="M55.74 126V102.69H0V86.0642L48.6864 6.36387H74.1479V87.4353H90.4914V102.69H74.1479V126H55.74ZM16.5155 87.4353H55.74V24.0179H54.5357L16.5155 87.4353Z" fill="#202020"/>
<path d="M304.249 126V102.69H248.509V86.0642L297.195 6.36387H322.656V87.4353H339V102.69H322.656V126H304.249ZM265.024 87.4353H304.249V24.0179H303.044L265.024 87.4353Z" fill="#202020"/>
<path d="M170.2 0H106.475V124.047H170.2C187.797 124.047 203.728 117.105 215.261 105.881C226.794 94.6557 233.925 79.1506 233.925 62.0235C233.925 27.7693 205.394 0 170.2 0ZM170.2 108.162C144.02 108.162 122.796 87.505 122.796 62.0235C122.796 36.542 144.02 15.885 170.2 15.885C196.381 15.885 217.605 36.542 217.605 62.0235C217.605 87.505 196.381 108.162 170.2 108.162Z" fill="#202020"/>
<path d="M140.447 80.0382L188.443 32.2209L199.81 43.5461L151.815 91.3634L140.447 80.0382Z" fill="#202020"/>
<path d="M199.81 80.0383L151.815 32.221L140.447 43.5462L188.443 91.3635L199.81 80.0383Z" fill="#202020"/>
</svg>
