<svg width="329" height="223" viewBox="0 0 329 223" fill="none" xmlns="http://www.w3.org/2000/svg">
<path d="M61.4723 176V152.712H5.99313V136.103L54.4518 56.48H79.7942V137.473H96.0612V152.712H79.7942V176H61.4723ZM22.4314 137.473H61.4723V74.1169H60.2737L22.4314 137.473Z" fill="#202020"/>
<path d="M205.637 176H124.473V157.507L162.657 123.432C168.708 117.952 173.331 112.758 176.527 107.85C179.838 102.827 181.493 97.5757 181.493 92.0962V89.8702C181.493 84.0483 179.723 79.4821 176.185 76.1717C172.76 72.8612 168.08 71.2059 162.144 71.2059C158.833 71.2059 155.922 71.7196 153.411 72.747C151.014 73.6602 148.902 74.973 147.075 76.6853C145.249 78.3977 143.708 80.3954 142.452 82.6785C141.31 84.9616 140.397 87.4159 139.712 90.0415L122.76 83.5346C124.016 79.7675 125.728 76.1717 127.897 72.747C130.066 69.2082 132.806 66.069 136.116 63.3292C139.427 60.5895 143.308 58.4206 147.76 56.8224C152.326 55.2243 157.635 54.4252 163.685 54.4252C169.735 54.4252 175.157 55.3384 179.952 57.1649C184.746 58.8772 188.742 61.3315 191.938 64.5279C195.249 67.61 197.76 71.3201 199.472 75.658C201.185 79.9958 202.041 84.7333 202.041 89.8702C202.041 94.6647 201.299 99.1168 199.815 103.226C198.331 107.336 196.276 111.217 193.65 114.87C191.025 118.523 187.943 122.005 184.404 125.315C180.979 128.626 177.326 131.993 173.445 135.418L145.363 159.562H205.637V176Z" fill="#202020"/>
<path d="M318.637 176H237.473V157.507L275.657 123.432C281.708 117.952 286.331 112.758 289.527 107.85C292.838 102.827 294.493 97.5757 294.493 92.0962V89.8702C294.493 84.0483 292.723 79.4821 289.185 76.1717C285.76 72.8612 281.08 71.2059 275.144 71.2059C271.833 71.2059 268.922 71.7196 266.411 72.747C264.014 73.6602 261.902 74.973 260.075 76.6853C258.249 78.3977 256.708 80.3954 255.452 82.6785C254.31 84.9616 253.397 87.4159 252.712 90.0415L235.76 83.5346C237.016 79.7675 238.728 76.1717 240.897 72.747C243.066 69.2082 245.806 66.069 249.116 63.3292C252.427 60.5895 256.308 58.4206 260.76 56.8224C265.326 55.2243 270.635 54.4252 276.685 54.4252C282.735 54.4252 288.157 55.3384 292.952 57.1649C297.746 58.8772 301.742 61.3315 304.938 64.5279C308.249 67.61 310.76 71.3201 312.472 75.658C314.185 79.9958 315.041 84.7333 315.041 89.8702C315.041 94.6647 314.299 99.1168 312.815 103.226C311.331 107.336 309.276 111.217 306.65 114.87C304.025 118.523 300.943 122.005 297.404 125.315C293.979 128.626 290.326 131.993 286.445 135.418L258.363 159.562H318.637V176Z" fill="#202020"/>
</svg>
