<svg width="368" height="130" viewBox="0 0 368 130" fill="none" xmlns="http://www.w3.org/2000/svg">
<path d="M76.9861 24.2608H23.9041L20.8219 66.5551H22.0205C23.3904 64.1579 24.8173 62.046 26.3013 60.2195C27.7854 58.2789 29.4977 56.6237 31.4383 55.2538C33.3789 53.8839 35.605 52.8565 38.1164 52.1716C40.6278 51.3725 43.5958 50.973 47.0204 50.973C52.1574 50.973 56.8948 51.8292 61.2327 53.5415C65.6847 55.2538 69.5089 57.7081 72.7053 60.9045C76.0157 64.1008 78.5842 68.0391 80.4107 72.7195C82.2372 77.2857 83.1504 82.4797 83.1504 88.3016C83.1504 94.2377 82.1801 99.7171 80.2395 104.74C78.413 109.763 75.6733 114.101 72.0203 117.754C68.3674 121.292 63.8583 124.089 58.493 126.144C53.2419 128.085 47.2487 129.055 40.5136 129.055C35.1483 129.055 30.4109 128.427 26.3013 127.171C22.1918 126.03 18.5388 124.489 15.3425 122.548C12.2603 120.493 9.52059 118.21 7.12334 115.699C4.84025 113.073 2.78546 110.391 0.958984 107.651L15 96.5208C16.484 98.918 18.0251 101.087 19.6233 103.028C21.2215 104.968 23.0479 106.681 25.1027 108.165C27.1575 109.649 29.4406 110.79 31.952 111.589C34.5776 112.388 37.5456 112.788 40.8561 112.788C47.9337 112.788 53.356 110.847 57.1231 106.966C61.0044 103.085 62.945 97.7194 62.945 90.8701V88.8153C62.945 81.966 61.0044 76.6007 57.1231 72.7195C53.356 68.8382 47.9337 66.8976 40.8561 66.8976C35.7191 66.8976 31.6095 67.8679 28.5274 69.8085C25.4452 71.7492 22.8196 73.9181 20.6507 76.3154L4.72609 74.0893L9.17813 7.48003H76.9861V24.2608Z" fill="#202020"/>
<path d="M166.725 0.476562H103V124.524H166.725C184.322 124.524 200.253 117.582 211.786 106.357C223.318 95.1323 230.45 79.6272 230.45 62.5001C230.45 28.2459 201.919 0.476562 166.725 0.476562ZM166.725 108.639C140.545 108.639 119.321 87.9816 119.321 62.5001C119.321 37.0185 140.545 16.3616 166.725 16.3616C192.906 16.3616 214.13 37.0185 214.13 62.5001C214.13 87.9816 192.906 108.639 166.725 108.639Z" fill="#202020"/>
<path d="M136.972 80.5148L184.968 32.6975L196.335 44.0226L148.34 91.84L136.972 80.5148Z" fill="#202020"/>
<path d="M196.335 80.5149L148.34 32.6976L136.972 44.0227L184.968 91.8401L196.335 80.5149Z" fill="#202020"/>
<path d="M304.175 0.476562H240.45V124.524H304.175C321.772 124.524 337.703 117.582 349.236 106.357C360.769 95.1323 367.901 79.6272 367.901 62.5001C367.901 28.2459 339.369 0.476562 304.175 0.476562ZM304.175 108.639C277.995 108.639 256.771 87.9816 256.771 62.5001C256.771 37.0185 277.995 16.3616 304.175 16.3616C330.356 16.3616 351.58 37.0185 351.58 62.5001C351.58 87.9816 330.356 108.639 304.175 108.639Z" fill="#202020"/>
<path d="M274.423 80.5148L322.418 32.6975L333.785 44.0226L285.79 91.84L274.423 80.5148Z" fill="#202020"/>
<path d="M333.785 80.5149L285.79 32.6976L274.423 44.0227L322.418 91.8401L333.785 80.5149Z" fill="#202020"/>
</svg>
