<svg width="56" height="56" viewBox="0 0 56 56" fill="none" xmlns="http://www.w3.org/2000/svg">
<path d="M25.1525 1.37109H0V50.5153H25.1525C32.0981 50.5153 38.386 47.7652 42.938 43.3182C47.4901 38.8712 50.3051 32.7285 50.3051 25.9432C50.3051 12.3726 39.0437 1.37109 25.1525 1.37109ZM25.1525 44.222C14.819 44.222 6.4419 36.0383 6.4419 25.9432C6.4419 15.8481 14.819 7.66433 25.1525 7.66433C35.4861 7.66433 43.8632 15.8481 43.8632 25.9432C43.8632 36.0383 35.4861 44.222 25.1525 44.222Z" fill="#202020"/>
<path fill-rule="evenodd" clip-rule="evenodd" d="M13.2524 23.2887L11.0059 25.9502L13.2524 28.6117L12.4075 31.962L15.6168 33.4028L16.3439 36.7797L19.875 36.7234L22.0296 39.4576L25.1845 37.9042L28.3394 39.4576L30.4941 36.7234L34.0251 36.7797L34.7522 33.4035L37.9615 31.962L37.1166 28.6117L39.3632 25.9502L37.1166 23.2887L37.9615 19.9385L34.7522 18.4977L34.0251 15.1208L30.4941 15.1771L28.3394 12.4429L25.1845 13.9963L22.0296 12.4429L19.875 15.1771L16.3439 15.1208L15.6168 18.497L12.4075 19.9385L13.2524 23.2887ZM28.6162 20.4167L29.2801 19.7682C30.165 18.9037 31.5997 18.9037 32.4847 19.7682C33.3696 20.6327 33.3696 22.0343 32.4847 22.8988L31.8208 23.5473C30.9359 24.4118 29.5012 24.4118 28.6162 23.5473C27.7313 22.6828 27.7313 21.2812 28.6162 20.4167Z" fill="#202020"/>
<path d="M19.0879 45.3467C19.0879 40.1047 23.3374 35.8552 28.5794 35.8552H46.5079C51.7499 35.8552 55.9994 40.1047 55.9994 45.3467C55.9994 50.5888 51.7499 54.8383 46.5079 54.8383H28.5794C23.3374 54.8383 19.0879 50.5888 19.0879 45.3467Z" fill="#FF5050"/>
<path d="M28.2565 48.4051L27.8515 47.0606H25.9643L25.5593 48.4051H24.312L26.1749 42.7517H27.6976L29.5362 48.4051H28.2565ZM26.92 43.8694H26.8795L26.2559 46.0158H27.5518L26.92 43.8694Z" fill="white"/>
<path d="M30.3993 48.4051V42.7517H31.6304V47.3117H33.7849V48.4051H30.3993Z" fill="white"/>
<path d="M34.7752 48.4051V42.7517H37.448C37.7126 42.7517 37.9502 42.7976 38.1608 42.8894C38.3714 42.9758 38.5496 43.0973 38.6954 43.2539C38.8465 43.4105 38.9626 43.6022 39.0436 43.8289C39.1246 44.0503 39.1651 44.2933 39.1651 44.5579C39.1651 44.8279 39.1246 45.0736 39.0436 45.2949C38.9626 45.5163 38.8465 45.7053 38.6954 45.8619C38.5496 46.0185 38.3714 46.1427 38.1608 46.2345C37.9502 46.3209 37.7126 46.3641 37.448 46.3641H36.0063V48.4051H34.7752ZM36.0063 45.2949H37.3023C37.4858 45.2949 37.6289 45.249 37.7315 45.1573C37.8395 45.0601 37.8935 44.9197 37.8935 44.7361V44.3797C37.8935 44.1961 37.8395 44.0584 37.7315 43.9666C37.6289 43.8694 37.4858 43.8208 37.3023 43.8208H36.0063V45.2949Z" fill="white"/>
<path d="M43.557 46.0887H41.4026V48.4051H40.1715V42.7517H41.4026V45.0034H43.557V42.7517H44.7882V48.4051H43.557V46.0887Z" fill="white"/>
<path d="M49.5962 48.4051L49.1913 47.0606H47.3041L46.8991 48.4051H45.6518L47.5147 42.7517H49.0374L50.876 48.4051H49.5962ZM48.2598 43.8694H48.2193L47.5957 46.0158H48.8916L48.2598 43.8694Z" fill="white"/>
</svg>
