<svg width="195" height="62" viewBox="0 0 195 62" fill="none" xmlns="http://www.w3.org/2000/svg">
<g clip-path="url(#clip0_1645_100)">
<path d="M25 6H0V56H25C31.9035 56 38.1532 53.2021 42.6776 48.6776C47.2021 44.1532 50 37.9035 50 31C50 17.193 38.8069 6 25 6ZM25 49.5972C14.7291 49.5972 6.40283 41.2709 6.40283 31C6.40283 20.7291 14.7291 12.4028 25 12.4028C35.2709 12.4028 43.5972 20.7291 43.5972 31C43.5972 41.2709 35.2709 49.5972 25 49.5972Z" fill="white"/>
<path fill-rule="evenodd" clip-rule="evenodd" d="M13.1724 28.2603L10.9395 30.9682L13.1724 33.676L12.3326 37.0847L15.5225 38.5506L16.2451 41.9862L19.7548 41.9289L21.8963 44.7108L25.0321 43.1303L28.1679 44.7108L30.3095 41.9289L33.8191 41.9862L34.5418 38.5512L37.7316 37.0847L36.8918 33.676L39.1248 30.9682L36.8918 28.2603L37.7316 24.8517L34.5418 23.3858L33.8191 19.9502L30.3095 20.0074L28.1679 17.2256L25.0321 18.806L21.8963 17.2256L19.7548 20.0074L16.2451 19.9502L15.5225 23.3852L12.3326 24.8517L13.1724 28.2603ZM28.4432 25.3381L29.103 24.6783C29.9825 23.7987 31.4086 23.7987 32.2881 24.6783C33.1677 25.5579 33.1677 26.9839 32.2881 27.8635L31.6283 28.5232C30.7488 29.4028 29.3227 29.4028 28.4432 28.5232C27.5636 27.6437 27.5636 26.2176 28.4432 25.3381Z" fill="white"/>
</g>
<path d="M72.544 25.288C71.456 25.288 70.464 25.104 69.568 24.736C68.688 24.352 67.928 23.8 67.288 23.08C66.664 22.344 66.176 21.44 65.824 20.368C65.488 19.28 65.32 18.032 65.32 16.624C65.32 15.216 65.488 13.976 65.824 12.904C66.176 11.816 66.664 10.912 67.288 10.192C67.928 9.456 68.688 8.904 69.568 8.536C70.464 8.152 71.456 7.96 72.544 7.96C73.632 7.96 74.616 8.152 75.496 8.536C76.392 8.904 77.152 9.456 77.776 10.192C78.416 10.912 78.904 11.816 79.24 12.904C79.592 13.976 79.768 15.216 79.768 16.624C79.768 18.032 79.592 19.28 79.24 20.368C78.904 21.44 78.416 22.344 77.776 23.08C77.152 23.8 76.392 24.352 75.496 24.736C74.616 25.104 73.632 25.288 72.544 25.288ZM72.544 22.864C73.184 22.864 73.768 22.752 74.296 22.528C74.84 22.304 75.296 21.984 75.664 21.568C76.048 21.136 76.344 20.616 76.552 20.008C76.76 19.4 76.864 18.712 76.864 17.944V15.304C76.864 14.536 76.76 13.848 76.552 13.24C76.344 12.632 76.048 12.12 75.664 11.704C75.296 11.272 74.84 10.944 74.296 10.72C73.768 10.496 73.184 10.384 72.544 10.384C71.888 10.384 71.296 10.496 70.768 10.72C70.24 10.944 69.784 11.272 69.4 11.704C69.032 12.12 68.744 12.632 68.536 13.24C68.328 13.848 68.224 14.536 68.224 15.304V17.944C68.224 18.712 68.328 19.4 68.536 20.008C68.744 20.616 69.032 21.136 69.4 21.568C69.784 21.984 70.24 22.304 70.768 22.528C71.296 22.752 71.888 22.864 72.544 22.864ZM82.9579 25V12.52H85.5739V14.584H85.6939C85.8219 14.264 85.9739 13.96 86.1499 13.672C86.3419 13.384 86.5659 13.136 86.8219 12.928C87.0939 12.704 87.4059 12.536 87.7579 12.424C88.1259 12.296 88.5499 12.232 89.0299 12.232C89.8779 12.232 90.6299 12.44 91.2859 12.856C91.9419 13.272 92.4219 13.912 92.7259 14.776H92.7979C93.0219 14.072 93.4539 13.472 94.0939 12.976C94.7339 12.48 95.5579 12.232 96.5659 12.232C97.8139 12.232 98.7819 12.656 99.4699 13.504C100.158 14.336 100.502 15.528 100.502 17.08V25H97.8859V17.392C97.8859 16.432 97.7019 15.712 97.3339 15.232C96.9659 14.736 96.3819 14.488 95.5819 14.488C95.2459 14.488 94.9259 14.536 94.6219 14.632C94.3179 14.712 94.0459 14.84 93.8059 15.016C93.5819 15.192 93.3979 15.416 93.2539 15.688C93.1099 15.96 93.0379 16.272 93.0379 16.624V25H90.4219V17.392C90.4219 15.456 89.6619 14.488 88.1419 14.488C87.8219 14.488 87.5019 14.536 87.1819 14.632C86.8779 14.712 86.6059 14.84 86.3659 15.016C86.1259 15.192 85.9339 15.416 85.7899 15.688C85.6459 15.96 85.5739 16.272 85.5739 16.624V25H82.9579ZM104.122 25V12.52H106.738V14.584H106.858C107.13 13.912 107.538 13.352 108.082 12.904C108.642 12.456 109.402 12.232 110.362 12.232C111.642 12.232 112.634 12.656 113.338 13.504C114.058 14.336 114.418 15.528 114.418 17.08V25H111.802V17.416C111.802 15.464 111.018 14.488 109.45 14.488C109.114 14.488 108.778 14.536 108.442 14.632C108.122 14.712 107.834 14.84 107.578 15.016C107.322 15.192 107.114 15.416 106.954 15.688C106.81 15.96 106.738 16.28 106.738 16.648V25H104.122ZM119.364 10.288C118.82 10.288 118.42 10.16 118.164 9.904C117.924 9.648 117.804 9.32 117.804 8.92V8.512C117.804 8.112 117.924 7.784 118.164 7.528C118.42 7.272 118.82 7.144 119.364 7.144C119.908 7.144 120.3 7.272 120.54 7.528C120.78 7.784 120.9 8.112 120.9 8.512V8.92C120.9 9.32 120.78 9.648 120.54 9.904C120.3 10.16 119.908 10.288 119.364 10.288ZM118.044 12.52H120.66V25H118.044V12.52ZM128.355 25.288C127.171 25.288 126.179 25.08 125.379 24.664C124.579 24.248 123.883 23.672 123.291 22.936L124.971 21.4C125.435 21.96 125.947 22.4 126.507 22.72C127.083 23.024 127.747 23.176 128.499 23.176C129.267 23.176 129.835 23.032 130.203 22.744C130.587 22.44 130.779 22.024 130.779 21.496C130.779 21.096 130.643 20.76 130.371 20.488C130.115 20.2 129.659 20.016 129.003 19.936L127.851 19.792C126.571 19.632 125.563 19.264 124.827 18.688C124.107 18.096 123.747 17.224 123.747 16.072C123.747 15.464 123.859 14.928 124.083 14.464C124.307 13.984 124.619 13.584 125.019 13.264C125.435 12.928 125.923 12.672 126.483 12.496C127.059 12.32 127.691 12.232 128.379 12.232C129.499 12.232 130.411 12.408 131.115 12.76C131.835 13.112 132.475 13.6 133.035 14.224L131.427 15.76C131.107 15.376 130.683 15.048 130.155 14.776C129.643 14.488 129.051 14.344 128.379 14.344C127.659 14.344 127.123 14.488 126.771 14.776C126.435 15.064 126.267 15.44 126.267 15.904C126.267 16.384 126.419 16.744 126.723 16.984C127.027 17.224 127.515 17.4 128.187 17.512L129.339 17.656C130.715 17.864 131.715 18.272 132.339 18.88C132.979 19.472 133.299 20.272 133.299 21.28C133.299 21.888 133.179 22.44 132.939 22.936C132.715 23.416 132.387 23.832 131.955 24.184C131.523 24.536 131.003 24.808 130.395 25C129.787 25.192 129.107 25.288 128.355 25.288ZM141.079 25.288C140.183 25.288 139.383 25.136 138.679 24.832C137.975 24.528 137.383 24.096 136.903 23.536C136.423 22.96 136.055 22.272 135.799 21.472C135.543 20.656 135.415 19.752 135.415 18.76C135.415 17.768 135.543 16.872 135.799 16.072C136.055 15.256 136.423 14.568 136.903 14.008C137.383 13.432 137.975 12.992 138.679 12.688C139.383 12.384 140.183 12.232 141.079 12.232C142.327 12.232 143.351 12.512 144.151 13.072C144.951 13.632 145.535 14.376 145.903 15.304L143.743 16.312C143.567 15.736 143.255 15.28 142.807 14.944C142.375 14.592 141.799 14.416 141.079 14.416C140.119 14.416 139.391 14.72 138.895 15.328C138.415 15.92 138.175 16.696 138.175 17.656V19.888C138.175 20.848 138.415 21.632 138.895 22.24C139.391 22.832 140.119 23.128 141.079 23.128C141.847 23.128 142.455 22.944 142.903 22.576C143.367 22.192 143.735 21.688 144.007 21.064L145.999 22.12C145.583 23.144 144.959 23.928 144.127 24.472C143.295 25.016 142.279 25.288 141.079 25.288ZM149.809 10.288C149.265 10.288 148.865 10.16 148.609 9.904C148.369 9.648 148.249 9.32 148.249 8.92V8.512C148.249 8.112 148.369 7.784 148.609 7.528C148.865 7.272 149.265 7.144 149.809 7.144C150.353 7.144 150.745 7.272 150.985 7.528C151.225 7.784 151.345 8.112 151.345 8.512V8.92C151.345 9.32 151.225 9.648 150.985 9.904C150.745 10.16 150.353 10.288 149.809 10.288ZM148.489 12.52H151.105V25H148.489V12.52ZM159.737 25.288C158.841 25.288 158.041 25.136 157.337 24.832C156.633 24.528 156.033 24.096 155.537 23.536C155.041 22.96 154.657 22.272 154.385 21.472C154.129 20.656 154.001 19.752 154.001 18.76C154.001 17.768 154.129 16.872 154.385 16.072C154.657 15.256 155.041 14.568 155.537 14.008C156.033 13.432 156.633 12.992 157.337 12.688C158.041 12.384 158.841 12.232 159.737 12.232C160.649 12.232 161.449 12.392 162.137 12.712C162.841 13.032 163.425 13.48 163.889 14.056C164.353 14.616 164.697 15.272 164.921 16.024C165.161 16.776 165.281 17.584 165.281 18.448V19.432H156.713V19.84C156.713 20.8 156.993 21.592 157.553 22.216C158.129 22.824 158.945 23.128 160.001 23.128C160.769 23.128 161.417 22.96 161.945 22.624C162.473 22.288 162.921 21.832 163.289 21.256L164.825 22.768C164.361 23.536 163.689 24.152 162.809 24.616C161.929 25.064 160.905 25.288 159.737 25.288ZM159.737 14.272C159.289 14.272 158.873 14.352 158.489 14.512C158.121 14.672 157.801 14.896 157.529 15.184C157.273 15.472 157.073 15.816 156.929 16.216C156.785 16.616 156.713 17.056 156.713 17.536V17.704H162.521V17.464C162.521 16.504 162.273 15.736 161.777 15.16C161.281 14.568 160.601 14.272 159.737 14.272ZM168.177 25V12.52H170.793V14.584H170.913C171.185 13.912 171.593 13.352 172.137 12.904C172.697 12.456 173.457 12.232 174.417 12.232C175.697 12.232 176.689 12.656 177.393 13.504C178.113 14.336 178.473 15.528 178.473 17.08V25H175.857V17.416C175.857 15.464 175.073 14.488 173.505 14.488C173.169 14.488 172.833 14.536 172.497 14.632C172.177 14.712 171.889 14.84 171.633 15.016C171.377 15.192 171.169 15.416 171.009 15.688C170.865 15.96 170.793 16.28 170.793 16.648V25H168.177ZM185.555 25C184.643 25 183.955 24.768 183.491 24.304C183.027 23.824 182.795 23.152 182.795 22.288V14.656H180.851V12.52H181.907C182.339 12.52 182.635 12.424 182.795 12.232C182.971 12.04 183.059 11.728 183.059 11.296V9.112H185.411V12.52H188.027V14.656H185.411V22.864H187.835V25H185.555ZM66.064 39.248H71.992C73.064 39.248 74.032 39.424 74.896 39.776C75.776 40.128 76.52 40.656 77.128 41.36C77.752 42.048 78.232 42.92 78.568 43.976C78.904 45.016 79.072 46.232 79.072 47.624C79.072 49.016 78.904 50.24 78.568 51.296C78.232 52.336 77.752 53.208 77.128 53.912C76.52 54.6 75.776 55.12 74.896 55.472C74.032 55.824 73.064 56 71.992 56H66.064V39.248ZM71.992 53.6C73.24 53.6 74.248 53.208 75.016 52.424C75.784 51.64 76.168 50.488 76.168 48.968V46.28C76.168 44.76 75.784 43.608 75.016 42.824C74.248 42.04 73.24 41.648 71.992 41.648H68.776V53.6H71.992ZM87.1508 56.288C86.2548 56.288 85.4548 56.136 84.7508 55.832C84.0468 55.528 83.4468 55.096 82.9508 54.536C82.4548 53.96 82.0708 53.272 81.7988 52.472C81.5428 51.656 81.4148 50.752 81.4148 49.76C81.4148 48.768 81.5428 47.872 81.7988 47.072C82.0708 46.256 82.4548 45.568 82.9508 45.008C83.4468 44.432 84.0468 43.992 84.7508 43.688C85.4548 43.384 86.2548 43.232 87.1508 43.232C88.0628 43.232 88.8628 43.392 89.5508 43.712C90.2548 44.032 90.8388 44.48 91.3028 45.056C91.7668 45.616 92.1108 46.272 92.3348 47.024C92.5748 47.776 92.6948 48.584 92.6948 49.448V50.432H84.1268V50.84C84.1268 51.8 84.4068 52.592 84.9668 53.216C85.5428 53.824 86.3588 54.128 87.4148 54.128C88.1828 54.128 88.8308 53.96 89.3588 53.624C89.8868 53.288 90.3348 52.832 90.7028 52.256L92.2388 53.768C91.7748 54.536 91.1028 55.152 90.2228 55.616C89.3428 56.064 88.3188 56.288 87.1508 56.288ZM87.1508 45.272C86.7028 45.272 86.2868 45.352 85.9028 45.512C85.5348 45.672 85.2148 45.896 84.9428 46.184C84.6868 46.472 84.4868 46.816 84.3428 47.216C84.1988 47.616 84.1268 48.056 84.1268 48.536V48.704H89.9348V48.464C89.9348 47.504 89.6868 46.736 89.1908 46.16C88.6948 45.568 88.0148 45.272 87.1508 45.272ZM99.5508 56.288C98.3668 56.288 97.3748 56.08 96.5748 55.664C95.7748 55.248 95.0788 54.672 94.4868 53.936L96.1668 52.4C96.6308 52.96 97.1428 53.4 97.7028 53.72C98.2788 54.024 98.9428 54.176 99.6948 54.176C100.463 54.176 101.031 54.032 101.399 53.744C101.783 53.44 101.975 53.024 101.975 52.496C101.975 52.096 101.839 51.76 101.567 51.488C101.311 51.2 100.855 51.016 100.199 50.936L99.0468 50.792C97.7668 50.632 96.7588 50.264 96.0228 49.688C95.3028 49.096 94.9428 48.224 94.9428 47.072C94.9428 46.464 95.0548 45.928 95.2788 45.464C95.5028 44.984 95.8148 44.584 96.2148 44.264C96.6308 43.928 97.1188 43.672 97.6788 43.496C98.2548 43.32 98.8868 43.232 99.5748 43.232C100.695 43.232 101.607 43.408 102.311 43.76C103.031 44.112 103.671 44.6 104.231 45.224L102.623 46.76C102.303 46.376 101.879 46.048 101.351 45.776C100.839 45.488 100.247 45.344 99.5748 45.344C98.8548 45.344 98.3188 45.488 97.9668 45.776C97.6308 46.064 97.4628 46.44 97.4628 46.904C97.4628 47.384 97.6148 47.744 97.9188 47.984C98.2228 48.224 98.7108 48.4 99.3828 48.512L100.535 48.656C101.911 48.864 102.911 49.272 103.535 49.88C104.175 50.472 104.495 51.272 104.495 52.28C104.495 52.888 104.375 53.44 104.135 53.936C103.911 54.416 103.583 54.832 103.151 55.184C102.719 55.536 102.199 55.808 101.591 56C100.983 56.192 100.303 56.288 99.5508 56.288ZM108.77 41.288C108.226 41.288 107.826 41.16 107.57 40.904C107.33 40.648 107.21 40.32 107.21 39.92V39.512C107.21 39.112 107.33 38.784 107.57 38.528C107.826 38.272 108.226 38.144 108.77 38.144C109.314 38.144 109.706 38.272 109.946 38.528C110.186 38.784 110.306 39.112 110.306 39.512V39.92C110.306 40.32 110.186 40.648 109.946 40.904C109.706 41.16 109.314 41.288 108.77 41.288ZM107.45 43.52H110.066V56H107.45V43.52ZM124.746 57.176C124.746 58.472 124.25 59.448 123.258 60.104C122.266 60.76 120.65 61.088 118.41 61.088C117.386 61.088 116.514 61.016 115.794 60.872C115.09 60.744 114.506 60.552 114.042 60.296C113.594 60.04 113.266 59.728 113.058 59.36C112.85 58.992 112.746 58.568 112.746 58.088C112.746 57.4 112.93 56.864 113.298 56.48C113.682 56.096 114.21 55.832 114.882 55.688V55.424C113.938 55.12 113.466 54.48 113.466 53.504C113.466 52.864 113.682 52.376 114.114 52.04C114.546 51.688 115.066 51.44 115.674 51.296V51.2C114.938 50.848 114.37 50.36 113.97 49.736C113.586 49.096 113.394 48.352 113.394 47.504C113.394 46.224 113.818 45.192 114.666 44.408C115.53 43.624 116.762 43.232 118.362 43.232C119.242 43.232 119.994 43.36 120.618 43.616V43.28C120.618 42.72 120.746 42.288 121.002 41.984C121.274 41.664 121.69 41.504 122.25 41.504H124.17V43.616H121.626V44.12C122.186 44.488 122.618 44.968 122.922 45.56C123.226 46.136 123.378 46.784 123.378 47.504C123.378 48.768 122.946 49.792 122.082 50.576C121.218 51.344 119.986 51.728 118.386 51.728C117.778 51.728 117.234 51.664 116.754 51.536C116.434 51.648 116.154 51.808 115.914 52.016C115.674 52.208 115.554 52.464 115.554 52.784C115.554 53.12 115.706 53.36 116.01 53.504C116.314 53.648 116.746 53.72 117.306 53.72H120.378C121.914 53.72 123.026 54.032 123.714 54.656C124.402 55.264 124.746 56.104 124.746 57.176ZM122.298 57.464C122.298 57.032 122.13 56.688 121.794 56.432C121.474 56.176 120.882 56.048 120.018 56.048H115.794C115.218 56.384 114.93 56.864 114.93 57.488C114.93 58 115.13 58.408 115.53 58.712C115.946 59.032 116.642 59.192 117.618 59.192H119.25C121.282 59.192 122.298 58.616 122.298 57.464ZM118.386 49.832C119.154 49.832 119.746 49.664 120.162 49.328C120.594 48.976 120.81 48.44 120.81 47.72V47.24C120.81 46.52 120.594 45.992 120.162 45.656C119.746 45.304 119.154 45.128 118.386 45.128C117.618 45.128 117.018 45.304 116.586 45.656C116.17 45.992 115.962 46.52 115.962 47.24V47.72C115.962 48.44 116.17 48.976 116.586 49.328C117.018 49.664 117.618 49.832 118.386 49.832ZM126.692 56V43.52H129.308V45.584H129.428C129.7 44.912 130.108 44.352 130.652 43.904C131.212 43.456 131.972 43.232 132.932 43.232C134.212 43.232 135.204 43.656 135.908 44.504C136.628 45.336 136.988 46.528 136.988 48.08V56H134.372V48.416C134.372 46.464 133.588 45.488 132.02 45.488C131.684 45.488 131.348 45.536 131.012 45.632C130.692 45.712 130.404 45.84 130.148 46.016C129.892 46.192 129.684 46.416 129.524 46.688C129.38 46.96 129.308 47.28 129.308 47.648V56H126.692Z" fill="white"/>
<defs>
<clipPath id="clip0_1645_100">
<rect width="50" height="50" fill="white" transform="translate(0 6)"/>
</clipPath>
</defs>
</svg>
