<svg width="50" height="50" viewBox="0 0 50 50" fill="none" xmlns="http://www.w3.org/2000/svg">
<g clip-path="url(#clip0_1642_98)">
<path d="M25 0H0V50H25C31.9035 50 38.1532 47.2021 42.6776 42.6776C47.2021 38.1532 50 31.9035 50 25C50 11.193 38.8069 0 25 0ZM25 43.5972C14.7291 43.5972 6.40283 35.2709 6.40283 25C6.40283 14.7291 14.7291 6.40283 25 6.40283C35.2709 6.40283 43.5972 14.7291 43.5972 25C43.5972 35.2709 35.2709 43.5972 25 43.5972Z" fill="#202020"/>
<path fill-rule="evenodd" clip-rule="evenodd" d="M13.1724 22.2603L10.9395 24.9682L13.1724 27.676L12.3326 31.0847L15.5225 32.5506L16.2451 35.9862L19.7548 35.9289L21.8963 38.7108L25.0321 37.1303L28.1679 38.7108L30.3095 35.9289L33.8191 35.9862L34.5418 32.5512L37.7316 31.0847L36.8918 27.676L39.1248 24.9682L36.8918 22.2603L37.7316 18.8517L34.5418 17.3858L33.8191 13.9502L30.3095 14.0074L28.1679 11.2256L25.0321 12.806L21.8963 11.2256L19.7548 14.0074L16.2451 13.9502L15.5225 17.3852L12.3326 18.8517L13.1724 22.2603ZM28.4432 19.3381L29.103 18.6783C29.9825 17.7987 31.4086 17.7987 32.2881 18.6783C33.1677 19.5579 33.1677 20.9839 32.2881 21.8635L31.6283 22.5232C30.7488 23.4028 29.3227 23.4028 28.4432 22.5232C27.5636 21.6437 27.5636 20.2176 28.4432 19.3381Z" fill="#202020"/>
</g>
<defs>
<clipPath id="clip0_1642_98">
<rect width="50" height="50" fill="white"/>
</clipPath>
</defs>
</svg>
