<svg width="56" height="56" viewBox="0 0 56 56" fill="none" xmlns="http://www.w3.org/2000/svg">
<g clip-path="url(#clip0_4141_222)">
<path d="M25.1525 1.37109H0V50.5153H25.1525C32.0981 50.5153 38.386 47.7652 42.938 43.3182C47.4901 38.8712 50.3051 32.7285 50.3051 25.9432C50.3051 12.3726 39.0437 1.37109 25.1525 1.37109ZM25.1525 44.222C14.819 44.222 6.4419 36.0383 6.4419 25.9432C6.4419 15.8481 14.819 7.66433 25.1525 7.66433C35.4861 7.66433 43.8632 15.8481 43.8632 25.9432C43.8632 36.0383 35.4861 44.222 25.1525 44.222Z" fill="white"/>
<path d="M30.4941 15.1772L34.0254 15.1206L34.752 18.4976L37.9619 19.938L37.1162 23.2886L39.3633 25.9507L37.1162 28.6118L37.9619 31.9624L34.752 33.4038L34.0254 36.7798L30.4941 36.7231L28.3398 39.4575L25.1846 37.9038L22.0293 39.4575L19.875 36.7231L16.3438 36.7798L15.6172 33.4028L12.4072 31.9624L13.252 28.6118L11.0059 25.9507L13.252 23.2886L12.4072 19.938L15.6172 18.4966L16.3438 15.1206L19.875 15.1772L22.0293 12.4429L25.1846 13.9966L28.3398 12.4429L30.4941 15.1772ZM32.4844 19.7681C31.5995 18.9038 30.1651 18.9038 29.2803 19.7681L28.6162 20.4165C27.7313 21.281 27.7313 22.6829 28.6162 23.5474C29.5011 24.4119 30.9364 24.4119 31.8213 23.5474L32.4844 22.8989C33.3693 22.0344 33.3693 20.6326 32.4844 19.7681Z" fill="white"/>
<rect x="19.019" y="35.6075" width="36.9811" height="19.0189" rx="9.50943" fill="#FF5050"/>
<path d="M27.8856 42.3813H30.6365C31.1071 42.3813 31.4723 42.5139 31.732 42.779C31.997 43.044 32.1296 43.3957 32.1296 43.8339C32.1296 44.0503 32.0998 44.2342 32.0403 44.3857C31.9862 44.5371 31.9105 44.6616 31.8131 44.7589C31.7211 44.8563 31.6102 44.9294 31.4804 44.978C31.356 45.0213 31.2207 45.0457 31.0747 45.0511V45.0998C31.2099 45.0998 31.3506 45.1241 31.4966 45.1728C31.6481 45.2215 31.786 45.2999 31.9105 45.4081C32.0349 45.5109 32.1377 45.6462 32.2188 45.8139C32.3054 45.9816 32.3487 46.1871 32.3487 46.4306C32.3487 46.6524 32.3108 46.8634 32.2351 47.0635C32.1647 47.2583 32.0647 47.4287 31.9348 47.5748C31.805 47.7208 31.6508 47.8371 31.4723 47.9237C31.2938 48.0048 31.099 48.0454 30.888 48.0454H27.8856V42.3813ZM29.119 47.0067H30.5391C30.7014 47.0067 30.8285 46.9634 30.9205 46.8769C31.0179 46.7849 31.0665 46.6578 31.0665 46.4955V46.2196C31.0665 46.0573 31.0179 45.9329 30.9205 45.8463C30.8285 45.7544 30.7014 45.7084 30.5391 45.7084H29.119V47.0067ZM29.119 44.7021H30.3443C30.5066 44.7021 30.6338 44.6562 30.7257 44.5642C30.8177 44.4722 30.8637 44.3451 30.8637 44.1828V43.9394C30.8637 43.7771 30.8177 43.6499 30.7257 43.558C30.6338 43.466 30.5066 43.42 30.3443 43.42H29.119V44.7021ZM33.3792 48.0454V42.3813H37.2337V43.4768H34.6126V44.6372H36.8604V45.7246H34.6126V46.9499H37.2337V48.0454H33.3792ZM40.7508 43.4768V48.0454H39.5173V43.4768H37.9836V42.3813H42.2844V43.4768H40.7508ZM46.1678 48.0454L45.762 46.6984H43.8713L43.4656 48.0454H42.2159L44.0823 42.3813H45.6079L47.4499 48.0454H46.1678ZM44.8289 43.5012H44.7883L44.1634 45.6516H45.4618L44.8289 43.5012Z" fill="white"/>
</g>
<defs>
<clipPath id="clip0_4141_222">
<rect width="56" height="56" fill="white"/>
</clipPath>
</defs>
</svg>
