<svg width="24" height="23" viewBox="0 0 24 23" fill="none" xmlns="http://www.w3.org/2000/svg">
<path d="M15.9443 2.2373L18.833 2.19043L19.4277 4.9541L22.0537 6.13281L21.3623 8.87305L23.2002 11.0508L21.3623 13.2285L22.0537 15.9688L19.4277 17.1484L18.833 19.9111L15.9443 19.8643L14.1816 22.1016L11.6006 20.8311L9.01953 22.1016L7.25586 19.8643L4.36719 19.9111L3.77246 17.1484L1.14648 15.9688L1.83789 13.2285L0 11.0508L1.83789 8.87305L1.14648 6.13281L3.77246 4.95312L4.36719 2.19043L7.25586 2.2373L9.01953 0L11.6006 1.27051L14.1816 0L15.9443 2.2373ZM17.5732 5.99219C16.8493 5.28506 15.6752 5.28518 14.9512 5.99219L14.4082 6.52344C13.6843 7.23072 13.6842 8.3777 14.4082 9.08496C15.1322 9.79193 16.3064 9.79212 17.0303 9.08496L17.5732 8.55371C18.297 7.84641 18.2971 6.69938 17.5732 5.99219Z" fill="white"/>
</svg>
