<svg width="50" height="50" viewBox="0 0 50 50" fill="none" xmlns="http://www.w3.org/2000/svg">
<g clip-path="url(#clip0_4523_977)">
<path d="M25 0H0V50H25C31.9035 50 38.1532 47.2021 42.6776 42.6776C47.2021 38.1532 50 31.9035 50 25C50 11.193 38.8069 0 25 0ZM25 43.5972C14.7291 43.5972 6.40283 35.2709 6.40283 25C6.40283 14.7291 14.7291 6.40283 25 6.40283C35.2709 6.40283 43.5972 14.7291 43.5972 25C43.5972 35.2709 35.2709 43.5972 25 43.5972Z" fill="white"/>
<path d="M30.3096 14.0078L33.8193 13.9502L34.542 17.3857L37.7314 18.8516L36.8916 22.2607L39.125 24.9678L36.8916 27.6758L37.7314 31.085L34.542 32.5508L33.8193 35.9863L30.3096 35.9287L28.168 38.7109L25.0322 37.1299L21.8965 38.7109L19.7549 35.9287L16.2451 35.9863L15.5225 32.5508L12.333 31.085L13.1729 27.6758L10.9395 24.9678L13.1729 22.2607L12.333 18.8516L15.5225 17.3848L16.2451 13.9502L19.7549 14.0078L21.8965 11.2256L25.0322 12.8057L28.168 11.2256L30.3096 14.0078ZM32.2881 18.6787C31.4085 17.7992 29.9821 17.7992 29.1025 18.6787L28.4434 19.3379C27.5638 20.2174 27.5638 21.6439 28.4434 22.5234C29.3228 23.4027 30.7484 23.4026 31.6279 22.5234L32.2881 21.8633C33.1675 20.9838 33.1674 19.5583 32.2881 18.6787Z" fill="white"/>
</g>
<defs>
<clipPath id="clip0_4523_977">
<rect width="50" height="50" fill="white"/>
</clipPath>
</defs>
</svg>
