<svg xmlns="http://www.w3.org/2000/svg" version="1.1" xmlns:xlink="http://www.w3.org/1999/xlink" xmlns:svgjs="http://svgjs.dev/svgjs" width="128" height="128"><svg width="128" height="128" viewBox="0 0 128 128" fill="none" xmlns="http://www.w3.org/2000/svg">
<g clip-path="url(#clip0_1696_428)">
<path d="M64 0H0V128H64C81.6729 128 97.6721 120.837 109.255 109.255C120.837 97.6721 128 81.6729 128 64C128 28.6542 99.3458 0 64 0ZM64 111.609C37.7065 111.609 16.3912 90.2935 16.3912 64C16.3912 37.7065 37.7065 16.3912 64 16.3912C90.2935 16.3912 111.609 37.7065 111.609 64C111.609 90.2935 90.2935 111.609 64 111.609Z" fill="#202020"></path>
<path fill-rule="evenodd" clip-rule="evenodd" d="M33.7217 56.9863L28.0054 63.9184L33.7217 70.8505L31.5719 79.5765L39.7379 83.3292L41.5879 92.1245L50.5726 91.9779L56.055 99.0994L64.0826 95.0535L72.1102 99.0994L77.5926 91.9779L86.5773 92.1245L88.4273 83.3309L96.5933 79.5765L94.4435 70.8505L100.16 63.9184L94.4435 56.9863L96.5933 48.2602L88.4273 44.5075L86.5773 35.7122L77.5926 35.8588L72.1102 28.7373L64.0826 32.7832L56.055 28.7373L50.5726 35.8588L41.5879 35.7122L39.7379 44.5058L31.5719 48.2602L33.7217 56.9863ZM72.8149 49.5053L74.5039 47.8162C76.7556 45.5646 80.4063 45.5646 82.658 47.8162C84.9096 50.0679 84.9096 53.7186 82.658 55.9703L80.9689 57.6593C78.7172 59.911 75.0666 59.911 72.8149 57.6593C70.5632 55.4076 70.5632 51.757 72.8149 49.5053Z" fill="#202020"></path>
</g>
<defs>
<clipPath id="SvgjsClipPath1008">
<rect width="128" height="128" fill="white"></rect>
</clipPath>
</defs>
</svg><style>@media (prefers-color-scheme: light) { :root { filter: none; } }
@media (prefers-color-scheme: dark) { :root { filter: none; } }
</style></svg>