<svg width="80" height="80" viewBox="0 0 80 80" fill="none" xmlns="http://www.w3.org/2000/svg">
<path d="M76.2771 60.4229H29.2058C35.4476 60.1319 40.3946 56.349 41.8495 51.4991H61.0552C62.3326 51.471 63.4772 51.3759 64.4666 50.8153C64.4666 50.8153 64.4676 50.8143 64.4705 50.8143C64.5481 50.79 65.7722 50.5427 70.27 56.446C70.27 56.446 73.5544 60.4229 76.2771 60.4229Z" fill="#E61818" stroke="black" stroke-width="0.484991" stroke-miterlimit="10"/>
<path d="M79.0001 60.424H76.2773C73.5546 60.424 70.2702 56.4471 70.2702 56.4471C65.7724 50.5438 64.5483 50.7911 64.4707 50.8154C65.14 50.4352 65.7385 49.8425 66.2584 48.9142H66.2594C66.3253 48.9123 69.3701 48.8521 73.4712 54.7981C77.3511 60.424 79.0001 60.424 79.0001 60.424Z" fill="white" stroke="black" stroke-width="0.484991" stroke-miterlimit="10"/>
<path d="M61.1094 19.0926C56.792 18.4359 51.4066 21.2964 47.1843 26.8622C38.6485 38.114 28.0757 38.114 28.0757 38.114H8.67601C8.27056 38.114 7.88645 38.1276 7.52271 38.1537C9.06304 38.1043 12.9895 38.5282 16.6124 43.4489C18.2497 45.6721 19.825 48.8138 21.0918 53.2457C21.0918 53.2457 21.7562 55.8957 23.6128 57.9782C24.7515 59.2557 26.3394 60.3178 28.4986 60.4236H29.2057C35.4475 60.1326 40.3944 56.3496 41.8494 51.4997H61.0551C62.3325 51.4716 63.4771 51.3765 64.4665 50.8159C64.4665 50.8159 64.4675 50.8149 64.4704 50.8149C65.1396 50.4347 65.7381 49.842 66.258 48.9138H66.259C67.5976 46.5247 68.423 41.9105 68.6209 32.9731C68.8168 24.1006 65.5208 19.7619 61.1094 19.0926ZM60.8611 48.8973H42.5992C43.5517 45.7439 45.3724 40.1635 47.8264 34.6802C50.1263 34.6802 54.399 30.681 56.3914 28.6819C57.6611 27.4073 59.5642 26.9466 61.249 27.5819C63.1405 28.2968 65.032 30.4278 65.032 36.0945C65.032 47.4277 60.8611 48.8973 60.8611 48.8973Z" fill="white" stroke="black" stroke-width="0.484991" stroke-miterlimit="10"/>
<path d="M28.4987 60.4246H9.71018C8.88181 60.4246 8.07867 60.1433 7.4346 59.6224C5.31907 57.9143 1.01332 53.2778 1.01332 43.8379C1.01332 43.8379 0.438117 38.9909 6.84873 38.2188C6.84873 38.2188 6.8497 38.2188 6.85067 38.2179H6.85261C7.06794 38.1917 7.29104 38.1703 7.52287 38.1548C9.0632 38.1053 12.9897 38.5292 16.6126 43.4499H12.6531C8.48218 43.4499 9.16117 48.6878 9.16117 48.6878C9.25816 57.9997 15.951 57.9793 15.951 57.9793H23.6129C24.7517 59.2568 26.3395 60.3189 28.4987 60.4246Z" fill="white" stroke="black" stroke-width="0.484991" stroke-miterlimit="10"/>
<path d="M6.85278 38.2173C6.88479 38.2115 7.12438 38.1669 7.52304 38.1543" stroke="black" stroke-width="0.484991" stroke-miterlimit="10"/>
<path d="M28.4988 60.4238C28.7277 60.4345 28.9634 60.4355 29.2059 60.4238" stroke="black" stroke-width="0.484991" stroke-miterlimit="10"/>
<path d="M47.8267 34.662C51.24 27.0195 55.8795 19.5632 61.1096 19.0938" stroke="black" stroke-width="0.484991" stroke-miterlimit="10"/>
<path d="M42.5994 48.8975C42.1105 50.5183 41.8496 51.4999 41.8496 51.4999" stroke="black" stroke-width="0.484991" stroke-miterlimit="10"/>
<path d="M23.6128 57.9786H15.951C15.951 57.9786 9.25808 57.999 9.16108 48.6871C9.16108 48.6871 8.48209 43.4492 12.653 43.4492H16.6125C18.2498 45.6724 19.8251 48.8142 21.0919 53.246C21.0919 53.246 21.7563 55.896 23.6128 57.9786Z" fill="#E61818" stroke="black" stroke-width="0.484991" stroke-miterlimit="10"/>
<path d="M16.642 43.4492H16.6128" stroke="black" stroke-width="0.484991" stroke-miterlimit="10"/>
<path d="M23.6144 57.9795H23.6128" stroke="black" stroke-width="0.484991" stroke-miterlimit="10"/>
<path d="M65.0319 36.0949C65.0319 47.4282 60.861 48.8977 60.861 48.8977H42.5991C43.5516 45.7443 45.3723 40.164 47.8264 34.6806C50.1262 34.6806 54.399 30.6814 56.3913 28.6823C57.661 27.4077 59.5641 26.947 61.249 27.5823C63.1404 28.2972 65.0319 30.4282 65.0319 36.0949Z" fill="#E61818" stroke="black" stroke-width="0.484991" stroke-miterlimit="10"/>
</svg>
