<svg width="96" height="96" viewBox="0 0 96 96" fill="none" xmlns="http://www.w3.org/2000/svg">
<g clip-path="url(#clip0_4992_6462)">
<path d="M63.2778 48C62.1727 48 61.1129 47.561 60.3315 46.7796C59.5501 45.9982 59.1111 44.9384 59.1111 43.8333C59.1111 42.7283 59.5501 41.6685 60.3315 40.8871C61.1129 40.1057 62.1727 39.6667 63.2778 39.6667C64.3828 39.6667 65.4427 40.1057 66.2241 40.8871C67.0055 41.6685 67.4444 42.7283 67.4444 43.8333C67.4444 44.9384 67.0055 45.9982 66.2241 46.7796C65.4427 47.561 64.3828 48 63.2778 48ZM54.9444 36.8889C53.8394 36.8889 52.7796 36.4499 51.9982 35.6685C51.2168 34.8871 50.7778 33.8273 50.7778 32.7222C50.7778 31.6172 51.2168 30.5573 51.9982 29.7759C52.7796 28.9945 53.8394 28.5556 54.9444 28.5556C56.0495 28.5556 57.1093 28.9945 57.8907 29.7759C58.6721 30.5573 59.1111 31.6172 59.1111 32.7222C59.1111 33.8273 58.6721 34.8871 57.8907 35.6685C57.1093 36.4499 56.0495 36.8889 54.9444 36.8889ZM41.0556 36.8889C39.9505 36.8889 38.8907 36.4499 38.1093 35.6685C37.3279 34.8871 36.8889 33.8273 36.8889 32.7222C36.8889 31.6172 37.3279 30.5573 38.1093 29.7759C38.8907 28.9945 39.9505 28.5556 41.0556 28.5556C42.1606 28.5556 43.2204 28.9945 44.0018 29.7759C44.7832 30.5573 45.2222 31.6172 45.2222 32.7222C45.2222 33.8273 44.7832 34.8871 44.0018 35.6685C43.2204 36.4499 42.1606 36.8889 41.0556 36.8889ZM32.7222 48C31.6172 48 30.5573 47.561 29.7759 46.7796C28.9945 45.9982 28.5556 44.9384 28.5556 43.8333C28.5556 42.7283 28.9945 41.6685 29.7759 40.8871C30.5573 40.1057 31.6172 39.6667 32.7222 39.6667C33.8273 39.6667 34.8871 40.1057 35.6685 40.8871C36.4499 41.6685 36.8889 42.7283 36.8889 43.8333C36.8889 44.9384 36.4499 45.9982 35.6685 46.7796C34.8871 47.561 33.8273 48 32.7222 48ZM48 23C41.3696 23 35.0107 25.6339 30.3223 30.3223C25.6339 35.0107 23 41.3696 23 48C23 54.6304 25.6339 60.9893 30.3223 65.6777C35.0107 70.3661 41.3696 73 48 73C49.1051 73 50.1649 72.561 50.9463 71.7796C51.7277 70.9982 52.1667 69.9384 52.1667 68.8333C52.1667 67.75 51.75 66.7778 51.0833 66.0556C50.4444 65.3056 50.0278 64.3333 50.0278 63.2778C50.0278 62.1727 50.4668 61.1129 51.2482 60.3315C52.0296 59.5501 53.0894 59.1111 54.1944 59.1111H59.1111C62.7947 59.1111 66.3274 57.6478 68.932 55.0431C71.5367 52.4385 73 48.9058 73 45.2222C73 32.9444 61.8056 23 48 23Z" fill="#47B36B"/>
</g>
<defs>
<clipPath id="clip0_4992_6462">
<rect width="96" height="96" fill="white"/>
</clipPath>
</defs>
</svg>
