<svg width="80" height="80" viewBox="0 0 80 80" fill="none" xmlns="http://www.w3.org/2000/svg">
<path d="M5.85314 27.8548C5.42991 27.3425 4.57464 27.9427 3.54458 27.3051C3.08397 27.0204 2.99493 26.728 2.74758 26.7819C2.34303 26.8698 1.94838 27.4052 2.00554 28.8442C2.11547 31.5925 2.88499 31.5925 3.43465 30.8229C4.03048 29.9886 4.3218 29.7786 4.78021 29.7005C5.10781 29.6445 5.18146 29.8149 5.41342 29.7236C5.94329 29.5169 6.26539 28.3539 5.85314 27.8548Z" fill="white" stroke="black" stroke-width="0.549657" stroke-miterlimit="10"/>
<path d="M34.4339 19.0375C36.6912 13.5199 36.5495 8.24043 34.1175 7.24547C31.6855 6.2505 27.884 9.91679 25.6267 15.4344C23.3695 20.9519 23.5111 26.2314 25.9431 27.2264C28.3751 28.2213 32.1766 24.555 34.4339 19.0375Z" fill="white" stroke="black" stroke-width="0.549657" stroke-miterlimit="10"/>
<path d="M23.3324 23.0177C23.3324 23.0177 29.0489 25.1064 28.829 29.2838C28.6092 33.4612 16.9564 34.7804 12.3393 34.7804C7.72217 34.7804 3.76464 31.7023 4.09443 28.7342C4.42423 25.766 8.35538 20.3992 17.5478 22.2031" fill="white"/>
<path d="M23.3324 23.0177C23.3324 23.0177 29.0489 25.1064 28.829 29.2838C28.6092 33.4612 16.9564 34.7804 12.3393 34.7804C7.72217 34.7804 3.76464 31.7023 4.09443 28.7342C4.42423 25.766 8.35538 20.3992 17.5478 22.2031" stroke="black" stroke-width="0.549657" stroke-miterlimit="10"/>
<path d="M32.7498 44.342C35.1307 43.17 35.3094 38.662 33.149 34.2733C30.9885 29.8846 27.307 27.277 24.926 28.4491C22.5451 29.6211 22.3664 34.1291 24.5269 38.5178C26.6873 42.9065 30.3689 45.5141 32.7498 44.342Z" fill="white" stroke="black" stroke-width="0.549657" stroke-miterlimit="10"/>
<path d="M71.2746 69.1745C75.1483 67.8331 76.3379 61.1125 73.9317 54.1638C71.5254 47.215 66.4345 42.6693 62.5608 44.0107C58.6871 45.352 57.4975 52.0726 59.9037 59.0214C62.31 65.9701 67.4009 70.5158 71.2746 69.1745Z" fill="white" stroke="black" stroke-width="0.549657" stroke-miterlimit="10"/>
<path d="M38.0158 60.659C39.9264 54.0698 38.4972 47.8647 34.8235 46.7995C31.1499 45.7343 26.623 50.2124 24.7124 56.8016C22.8018 63.3908 24.231 69.5959 27.9046 70.6611C31.5783 71.7263 36.1052 67.2483 38.0158 60.659Z" fill="white" stroke="black" stroke-width="0.549657" stroke-miterlimit="10"/>
<path d="M46.3697 55.3093C55.8584 54.8137 63.3266 50.1235 63.0502 44.8335C62.7739 39.5434 54.8578 35.6568 45.3691 36.1524C35.8804 36.648 28.4122 41.3382 28.6885 46.6283C28.9649 51.9183 36.881 55.805 46.3697 55.3093Z" fill="white" stroke="black" stroke-width="0.549657" stroke-miterlimit="10"/>
<path d="M32.3584 62.9675C35.6693 55.5348 34.9939 48.0129 30.8499 46.167C26.7059 44.3211 20.6626 48.8502 17.3517 56.283C14.0409 63.7158 14.7163 71.2376 18.8603 73.0835C23.0043 74.9294 29.0476 70.4003 32.3584 62.9675Z" fill="white" stroke="black" stroke-width="0.549657" stroke-miterlimit="10"/>
<path d="M65.5676 75.4442C69.884 74.5848 72.1336 67.612 70.5922 59.87C69.0508 52.128 64.3021 46.5485 59.9857 47.4078C55.6693 48.2672 53.4197 55.24 54.9611 62.982C56.5025 70.724 61.2512 76.3035 65.5676 75.4442Z" fill="white" stroke="black" stroke-width="0.549657" stroke-miterlimit="10"/>
<path d="M71.6864 38.9077C75.4944 33.9091 76.4475 28.2314 73.8154 26.2263C71.1833 24.2211 65.9626 26.6478 62.1546 31.6464C58.3467 36.6451 57.3935 42.3228 60.0257 44.3279C62.6578 46.333 67.8785 43.9063 71.6864 38.9077Z" fill="white" stroke="black" stroke-width="0.549657" stroke-miterlimit="10"/>
<path d="M71.7561 27.0014L76.4172 20.1274C76.6195 19.8284 76.8987 19.5855 77.2307 19.4426C77.511 19.3216 77.8287 19.2656 78.0398 19.4766C78.4949 19.9317 78.0398 20.6342 78.0398 20.6342L73.4919 27.4148" fill="white"/>
<path d="M71.7561 27.0014L76.4172 20.1274C76.6195 19.8284 76.8987 19.5855 77.2307 19.4426C77.511 19.3216 77.8287 19.2656 78.0398 19.4766C78.4949 19.9317 78.0398 20.6342 78.0398 20.6342L73.4919 27.4148" stroke="black" stroke-width="0.549657" stroke-miterlimit="10"/>
<path d="M21.348 28.2949C24.3048 28.2949 26.7017 22.8563 26.7017 16.1474C26.7017 9.43859 24.3048 4 21.348 4C18.3913 4 15.9944 9.43859 15.9944 16.1474C15.9944 22.8563 18.3913 28.2949 21.348 28.2949Z" fill="white" stroke="black" stroke-width="0.549657" stroke-miterlimit="10"/>
</svg>
