<svg width="96" height="96" viewBox="0 0 96 96" fill="none" xmlns="http://www.w3.org/2000/svg">
<g clip-path="url(#clip0_4992_6462)">
<path d="M70 48C68.4087 48 66.8826 47.3679 65.7574 46.2426C64.6321 45.1174 64 43.5913 64 42C64 40.4087 64.6321 38.8826 65.7574 37.7574C66.8826 36.6321 68.4087 36 70 36C71.5913 36 73.1174 36.6321 74.2426 37.7574C75.3679 38.8826 76 40.4087 76 42C76 43.5913 75.3679 45.1174 74.2426 46.2426C73.1174 47.3679 71.5913 48 70 48ZM58 32C56.4087 32 54.8826 31.3679 53.7574 30.2426C52.6321 29.1174 52 27.5913 52 26C52 24.4087 52.6321 22.8826 53.7574 21.7574C54.8826 20.6321 56.4087 20 58 20C59.5913 20 61.1174 20.6321 62.2426 21.7574C63.3679 22.8826 64 24.4087 64 26C64 27.5913 63.3679 29.1174 62.2426 30.2426C61.1174 31.3679 59.5913 32 58 32ZM38 32C36.4087 32 34.8826 31.3679 33.7574 30.2426C32.6321 29.1174 32 27.5913 32 26C32 24.4087 32.6321 22.8826 33.7574 21.7574C34.8826 20.6321 36.4087 20 38 20C39.5913 20 41.1174 20.6321 42.2426 21.7574C43.3679 22.8826 44 24.4087 44 26C44 27.5913 43.3679 29.1174 42.2426 30.2426C41.1174 31.3679 39.5913 32 38 32ZM26 48C24.4087 48 22.8826 47.3679 21.7574 46.2426C20.6321 45.1174 20 43.5913 20 42C20 40.4087 20.6321 38.8826 21.7574 37.7574C22.8826 36.6321 24.4087 36 26 36C27.5913 36 29.1174 36.6321 30.2426 37.7574C31.3679 38.8826 32 40.4087 32 42C32 43.5913 31.3679 45.1174 30.2426 46.2426C29.1174 47.3679 27.5913 48 26 48ZM48 12C38.4522 12 29.2955 15.7928 22.5442 22.5442C15.7928 29.2955 12 38.4522 12 48C12 57.5478 15.7928 66.7045 22.5442 73.4558C29.2955 80.2072 38.4522 84 48 84C49.5913 84 51.1174 83.3679 52.2426 82.2426C53.3679 81.1174 54 79.5913 54 78C54 76.44 53.4 75.04 52.44 74C51.52 72.92 50.92 71.52 50.92 70C50.92 68.4087 51.5521 66.8826 52.6774 65.7574C53.8026 64.6321 55.3287 64 56.92 64H64C69.3043 64 74.3914 61.8929 78.1421 58.1421C81.8929 54.3914 84 49.3043 84 44C84 26.32 67.88 12 48 12Z" fill="#47B36B"/>
</g>
<defs>
<clipPath id="clip0_4992_6462">
<rect width="96" height="96" fill="white"/>
</clipPath>
</defs>
</svg>
