<svg width="96" height="96" viewBox="0 0 96 96" fill="none" xmlns="http://www.w3.org/2000/svg">
<g clip-path="url(#clip0_4992_6586)">
<path d="M87.6441 28.5653C86.2424 23.752 83.6491 19.37 80.1042 15.8251C76.5593 12.2802 72.1774 9.68691 67.3641 8.28528C66.0522 7.94657 64.6759 7.94657 63.3641 8.28528C62.0447 8.66831 60.8462 9.38464 59.8841 10.3653L50.9641 19.3253L12.8041 57.4453C11.6046 58.6976 10.8222 60.2905 10.5641 62.0053L8.12407 78.6453C7.93739 79.8906 8.03308 81.1619 8.40407 82.3653C8.81207 83.5653 9.48407 84.6573 10.3641 85.5653C11.2601 86.4533 12.3401 87.1333 13.5241 87.5653C14.3521 87.8373 15.2161 87.9693 16.0841 87.9653H17.2441L33.8841 85.5253C35.6213 85.3023 37.2373 84.5154 38.4841 83.2853L76.6841 45.0853L85.5641 36.2453C86.5646 35.2661 87.2907 34.0414 87.6697 32.6937C88.0488 31.3461 88.0675 29.9225 87.7241 28.5653H87.6441ZM81.8041 31.0853C81.6985 31.423 81.5053 31.7266 81.2441 31.9653L74.4841 38.7253L57.2041 21.4853L64.0441 14.6453C64.3083 14.4057 64.6226 14.2281 64.9641 14.1253H65.8841C69.671 15.2517 73.1173 17.3046 75.911 20.0983C78.7047 22.8921 80.7577 26.3383 81.8841 30.1253C81.9226 30.4474 81.8953 30.774 81.8041 31.0853Z" fill="#7E73FF"/>
</g>
<defs>
<clipPath id="clip0_4992_6586">
<rect width="96" height="96" fill="white"/>
</clipPath>
</defs>
</svg>
