<svg width="96" height="96" viewBox="0 0 96 96" fill="none" xmlns="http://www.w3.org/2000/svg">
<g clip-path="url(#clip0_4992_6586)">
<path d="M72.7971 35.8443C71.9204 32.8335 70.2983 30.0926 68.081 27.8752C65.8637 25.6578 63.1228 24.0356 60.1121 23.1589C59.2916 22.947 58.4307 22.947 57.6101 23.1589C56.7849 23.3985 56.0353 23.8466 55.4334 24.46L49.8541 30.0646L25.9854 53.9092C25.2351 54.6926 24.7457 55.689 24.5843 56.7616L23.0581 67.1701C22.9413 67.9491 23.0011 68.7444 23.2332 69.4971C23.4884 70.2477 23.9087 70.9307 24.4592 71.4987C25.0196 72.0542 25.6951 72.4795 26.4357 72.7497C26.9536 72.9199 27.494 73.0024 28.037 72.9999H28.7625L39.1707 71.4737C40.2573 71.3342 41.2681 70.842 42.0479 70.0725L65.9417 46.1779L71.496 40.6483C72.1219 40.0358 72.576 39.2698 72.8131 38.4268C73.0502 37.5838 73.0619 36.6933 72.8471 35.8443H72.7971ZM69.1442 37.4206C69.0782 37.6319 68.9573 37.8218 68.7939 37.9711L64.5656 42.1996L53.7571 31.4157L58.0355 27.1372C58.2008 26.9873 58.3973 26.8762 58.6109 26.8119H59.1864C61.5551 27.5165 63.7107 28.8006 65.4581 30.5482C67.2056 32.2957 68.4897 34.4514 69.1942 36.8202C69.2183 37.0216 69.2013 37.2259 69.1442 37.4206Z" fill="#7E73FF"/>
</g>
<defs>
<clipPath id="clip0_4992_6586">
<rect width="96" height="96" fill="white"/>
</clipPath>
</defs>
</svg>
