<svg width="80" height="80" viewBox="0 0 80 80" fill="none" xmlns="http://www.w3.org/2000/svg">
<path d="M68.8193 51.0226C68.8193 51.0226 59.7668 32.1875 42.6838 32.1875C25.6008 32.1875 11 51.7526 11 51.7526C11 51.7526 19.3225 72.2595 41.2968 72.2595C63.271 72.2595 68.8193 51.0226 68.8193 51.0226Z" fill="white" stroke="black" stroke-width="0.730042" stroke-miterlimit="10"/>
<path d="M43.0488 32.1875C35.0257 32.1875 28.521 38.6922 28.521 46.7153C28.521 54.7385 35.0257 61.2432 43.0488 61.2432C51.072 61.2432 57.5767 54.7385 57.5767 46.7153C57.5767 38.6922 51.072 32.1875 43.0488 32.1875ZM42.9758 47.9564C39.9111 47.9564 37.4275 45.4728 37.4275 42.4081C37.4275 39.3434 39.9111 36.8598 42.9758 36.8598C46.0406 36.8598 48.5242 39.3434 48.5242 42.4081C48.5242 45.4728 46.0406 47.9564 42.9758 47.9564Z" fill="#7E73FF" stroke="black" stroke-width="0.730042" stroke-miterlimit="10"/>
<path d="M17.4243 29.9968V14.5593C17.4243 14.5593 44.0869 -2.44918 66.3036 14.5593V29.9968C66.3036 29.9968 45.3119 12.559 17.4243 29.9968Z" fill="black" stroke="black" stroke-width="0.730042" stroke-miterlimit="10"/>
</svg>
