<svg width="96" height="96" viewBox="0 0 96 96" fill="none" xmlns="http://www.w3.org/2000/svg">
<g clip-path="url(#clip0_4992_6595)">
<path d="M42 88C40.2667 88 38.684 87.484 37.252 86.452C35.82 85.42 34.836 84.036 34.3 82.3L32 74.6C31.6 73.2667 30.984 71.9173 30.152 70.552C29.32 69.1867 28.236 67.7693 26.9 66.3C24.6333 63.8333 22.9173 61.0333 21.752 57.9C20.5867 54.7667 20.0027 51.4667 20 48C20 44.6 20.584 41.3333 21.752 38.2C22.92 35.0667 24.636 32.2333 26.9 29.7C28.2333 28.1667 29.3173 26.7333 30.152 25.4C30.9867 24.0667 31.6027 22.7333 32 21.4L34.3 13.7C34.8333 11.9667 35.8173 10.584 37.252 9.552C38.6867 8.52 40.2693 8.00267 42 8H54C55.7333 8 57.3173 8.51733 58.752 9.552C60.1867 10.5867 61.1693 11.9693 61.7 13.7L64 21.4C64.4 22.7333 65.0173 24.084 65.852 25.452C66.6867 26.82 67.7693 28.236 69.1 29.7C71.3667 32.1667 73.084 34.9667 74.252 38.1C75.42 41.2333 76.0027 44.5333 76 48C76 51.4 75.4173 54.6667 74.252 57.8C73.0867 60.9333 71.3693 63.7667 69.1 66.3C67.7667 67.8333 66.684 69.2667 65.852 70.6C65.02 71.9333 64.4027 73.2667 64 74.6L61.7 82.3C61.1667 84.0333 60.184 85.4173 58.752 86.452C57.32 87.4867 55.736 88.0027 54 88H42ZM48 68C53.5333 68 58.2507 66.0493 62.152 62.148C66.0533 58.2467 68.0027 53.5307 68 48C67.9973 42.4693 66.0467 37.7533 62.148 33.852C58.2493 29.9507 53.5333 28 48 28C42.4667 28 37.7507 29.9507 33.852 33.852C29.9533 37.7533 28.0027 42.4693 28 48C27.9973 53.5307 29.948 58.248 33.852 62.152C37.756 66.056 42.472 68.0053 48 68Z" fill="#8C4B2A"/>
</g>
<defs>
<clipPath id="clip0_4992_6595">
<rect width="96" height="96" fill="white"/>
</clipPath>
</defs>
</svg>
