<svg width="80" height="80" viewBox="0 0 80 80" fill="none" xmlns="http://www.w3.org/2000/svg">
<path d="M10.8256 34.1426C6.92064 36.0099 4.02393 37.2152 4.02393 37.2152" stroke="black" stroke-width="0.46038" stroke-miterlimit="10"/>
<path d="M40.2097 32.3359C40.2097 32.3359 35.5138 22.4838 28.7923 25.6144C24.764 27.4909 16.6677 31.3516 10.8264 34.1434" stroke="black" stroke-width="0.46038" stroke-miterlimit="10"/>
<path d="M14.889 50.9351C9.0882 50.9351 6.68962 45.4308 6.68962 45.4308C1.43668 35.691 5.49723 33.3486 5.49723 33.3486L10.7253 34.1285C10.7585 34.1331 10.7925 34.1386 10.8257 34.1432H10.8266C12.6598 34.4176 14.4921 34.6902 16.3254 34.9646C16.7747 35.1653 17.2249 35.366 17.6743 35.5667C18.2534 35.8255 18.7534 36.2352 19.1134 36.7573C19.6944 37.5989 20.3417 38.7922 20.699 40.316C20.7597 40.5775 20.9098 41.5692 20.966 42.9245C21.0581 45.1344 20.6898 50.9351 14.889 50.9351Z" stroke="black" stroke-width="0.46038" stroke-miterlimit="10"/>
<path d="M50.2139 45.4312C50.2139 45.4312 66.6623 35.138 73.4492 32.152C75.7511 31.1391 76.0274 38.1369 76.0274 38.1369" stroke="black" stroke-width="0.46038" stroke-miterlimit="10"/>
<path d="M45.4583 55.9993C39.1971 55.9072 36.5085 55.5389 33.203 50.9351C32.4139 49.8357 31.7611 48.9002 31.2224 48.0826C31.2243 48.0826 31.2252 48.0826 31.227 48.0807C31.8504 47.8607 32.0465 46.8073 31.6653 45.7291C31.2841 44.65 30.4692 43.9539 29.8459 44.1749C29.6249 44.2522 29.4583 44.4345 29.3514 44.6859C29.0504 43.8986 28.9168 43.2035 28.8846 42.4641C28.7925 40.3463 29.4509 37.5196 31.192 37.1826H31.193L46.8394 39.5177C46.8394 39.5177 50.1827 40.4789 50.214 45.4308C50.214 45.4308 51.7195 56.0913 45.4583 55.9993Z" stroke="black" stroke-width="0.46038" stroke-miterlimit="10"/>
<path d="M28.8762 40.8105C28.8762 40.8105 26.3985 39.3346 24.8332 39.2425C23.2679 39.1504 20.699 40.317 20.699 40.317" stroke="black" stroke-width="0.46038" stroke-miterlimit="10"/>
<path d="M24.3954 44.9321C24.7766 43.8533 24.5803 42.8002 23.957 42.5799C23.3337 42.3597 22.5194 43.0557 22.1382 44.1345C21.757 45.2133 21.9533 46.2664 22.5766 46.4867C23.1999 46.7069 24.0142 46.0109 24.3954 44.9321Z" fill="white" stroke="black" stroke-width="0.46038" stroke-miterlimit="10"/>
<path d="M31.2271 48.0806C31.2271 48.0806 31.2244 48.0815 31.2225 48.0824C30.2935 46.6709 29.7051 45.6139 29.3516 44.6857C29.4584 44.4344 29.625 44.2521 29.846 44.1747C30.4694 43.9537 31.2842 44.6498 31.6654 45.729C32.0466 46.8072 31.8505 47.8605 31.2271 48.0806Z" fill="white" stroke="black" stroke-width="0.46038" stroke-miterlimit="10"/>
<path d="M31.2222 48.0822C30.5998 48.2977 29.7877 47.6025 29.4074 46.5261C29.1616 45.83 29.1561 45.1432 29.3513 44.6855C29.7048 45.6137 30.2932 46.6707 31.2222 48.0822Z" fill="white" stroke="black" stroke-width="0.46038" stroke-miterlimit="10"/>
<path d="M21.0393 43.7369C21.0393 43.7369 22.0871 43.3511 22.309 43.7369" stroke="black" stroke-width="0.46038" stroke-miterlimit="10"/>
<path d="M16.3254 34.9658L32.0787 37.3165" stroke="black" stroke-width="0.46038" stroke-miterlimit="10"/>
</svg>
