<svg width="96" height="96" viewBox="0 0 96 96" fill="none" xmlns="http://www.w3.org/2000/svg">
<g clip-path="url(#clip0_4992_6595)">
<path d="M42.6429 84C41.0952 84 39.6821 83.542 38.4036 82.6261C37.125 81.7102 36.2464 80.4819 35.7679 78.9412L33.7143 72.1075C33.3571 70.9242 32.8071 69.7266 32.0643 68.5149C31.3214 67.3032 30.3536 66.0453 29.1607 64.7412C27.1369 62.5521 25.6048 60.0671 24.5643 57.2862C23.5238 54.5054 23.0024 51.5767 23 48.5C23 45.4825 23.5214 42.5833 24.5643 39.8025C25.6071 37.0217 27.1393 34.5071 29.1607 32.2587C30.3512 30.8979 31.319 29.6258 32.0643 28.4425C32.8095 27.2592 33.3595 26.0758 33.7143 24.8925L35.7679 18.0587C36.244 16.5204 37.1226 15.2933 38.4036 14.3774C39.6845 13.4615 41.0976 13.0024 42.6429 13H53.3571C54.9048 13 56.319 13.4591 57.6 14.3774C58.8809 15.2957 59.7583 16.5228 60.2321 18.0587L62.2857 24.8925C62.6429 26.0758 63.194 27.2745 63.9393 28.4886C64.6845 29.7027 65.6512 30.9594 66.8393 32.2587C68.8631 34.4479 70.3964 36.9329 71.4393 39.7137C72.4821 42.4946 73.0024 45.4233 73 48.5C73 51.5175 72.4798 54.4167 71.4393 57.1975C70.3988 59.9783 68.8655 62.4929 66.8393 64.7412C65.6488 66.1021 64.6821 67.3742 63.9393 68.5575C63.1964 69.7408 62.6452 70.9242 62.2857 72.1075L60.2321 78.9412C59.7559 80.4796 58.8786 81.7079 57.6 82.6261C56.3214 83.5444 54.9071 84.0024 53.3571 84H42.6429ZM48 66.25C52.9405 66.25 57.1524 64.5188 60.6357 61.0563C64.119 57.5939 65.8595 53.4085 65.8571 48.5C65.8548 43.5915 64.1131 39.4061 60.6321 35.9436C57.1512 32.4812 52.9405 30.75 48 30.75C43.0595 30.75 38.8488 32.4812 35.3679 35.9436C31.8869 39.4061 30.1452 43.5915 30.1429 48.5C30.1405 53.4085 31.8821 57.5951 35.3679 61.0599C38.8536 64.5247 43.0643 66.2547 48 66.25Z" fill="#8C4B2A"/>
</g>
<defs>
<clipPath id="clip0_4992_6595">
<rect width="96" height="96" fill="white"/>
</clipPath>
</defs>
</svg>
