<svg width="96" height="96" viewBox="0 0 96 96" fill="none" xmlns="http://www.w3.org/2000/svg">
<g clip-path="url(#clip0_4992_6469)">
<path d="M24.8453 34.0928C24.4317 33.4165 24.1631 32.6616 24.0566 31.876C23.9501 31.0903 24.008 30.2912 24.2266 29.5291C24.375 28.8963 24.6285 28.293 24.9766 27.7441L32.9978 16.2691V7.00659C32.9969 6.59533 33.0806 6.18827 33.2436 5.81071C33.4067 5.43314 33.6456 5.09313 33.9456 4.81179C34.2456 4.53045 34.6002 4.31379 34.9874 4.17528C35.3746 4.03676 35.7862 3.97934 36.1966 4.00659C36.9693 4.07295 37.6882 4.42991 38.208 5.00547C38.7279 5.58103 39.0102 6.33235 38.9978 7.10784V16.1641L40.9666 18.6316C41.8236 19.7064 42.9163 20.5698 44.1602 21.155C45.4041 21.7403 46.7659 22.0316 48.1403 22.0066C49.4977 21.9682 50.8299 21.6315 52.0425 21.0203C53.2551 20.4092 54.3183 19.5386 55.1566 18.4703L56.9978 16.1641V7.00659C56.9969 6.59533 57.0806 6.18827 57.2436 5.81071C57.4067 5.43314 57.6456 5.09313 57.9456 4.81179C58.2456 4.53045 58.6002 4.31379 58.9874 4.17528C59.3746 4.03676 59.7862 3.97934 60.1966 4.00659C60.9693 4.07295 61.6882 4.42991 62.208 5.00547C62.7279 5.58103 63.0102 6.33235 62.9978 7.10784V16.2691L71.0303 27.7441C71.3784 28.293 71.6319 28.8963 71.7803 29.5291C71.999 30.2912 72.0569 31.0903 71.9503 31.876C71.8438 32.6616 71.5752 33.4165 71.1616 34.0928C71.1467 34.1146 71.1329 34.1371 71.1203 34.1603L65.9228 42.3128C65.7864 42.5269 65.5978 42.7029 65.3748 42.8242C65.1518 42.9455 64.9017 43.0083 64.6478 43.0066H31.3478C31.0959 43.0064 30.848 42.9427 30.6271 42.8215C30.4063 42.7002 30.2195 42.5253 30.0841 42.3128L24.8866 34.1603C24.874 34.1371 24.8603 34.1146 24.8453 34.0928ZM80.5328 82.6778C80.5173 82.634 80.4985 82.5914 80.4766 82.5503L65.1316 49.8691C65.0103 49.6107 64.8177 49.3923 64.5766 49.2395C64.3355 49.0867 64.0558 49.0059 63.7703 49.0066H32.2253C31.9399 49.0059 31.6602 49.0867 31.419 49.2395C31.1779 49.3923 30.9854 49.6107 30.8641 49.8691L15.5191 82.5503C15.4972 82.5914 15.4784 82.634 15.4628 82.6778C15.1359 83.4667 14.979 84.3155 15.0023 85.1691C15.0255 86.0227 15.2285 86.8617 15.5978 87.6316C16.0905 88.6442 16.8582 89.4977 17.8132 90.0946C18.7681 90.6914 19.8717 91.0075 20.9978 91.0066H74.9978C76.1233 91.0068 77.2261 90.6904 78.1804 90.0936C79.1346 89.4968 79.9017 88.6436 80.3941 87.6316C80.7641 86.862 80.9676 86.0231 80.9915 85.1695C81.0155 84.3159 80.8591 83.4669 80.5328 82.6778Z" fill="#50A7E6"/>
</g>
<defs>
<clipPath id="clip0_4992_6469">
<rect width="96" height="96" fill="white"/>
</clipPath>
</defs>
</svg>
