<svg width="96" height="96" viewBox="0 0 96 96" fill="none" xmlns="http://www.w3.org/2000/svg">
<g clip-path="url(#clip0_4992_6469)">
<path d="M30.4593 37.8273C30.1459 37.3143 29.9424 36.7416 29.8617 36.1457C29.781 35.5497 29.8248 34.9435 29.9905 34.3654C30.1029 33.8855 30.295 33.4278 30.5587 33.0114L36.636 24.3069V17.2807C36.6353 16.9687 36.6987 16.6599 36.8222 16.3735C36.9457 16.0871 37.1268 15.8292 37.354 15.6158C37.5813 15.4024 37.85 15.238 38.1434 15.133C38.4368 15.0279 38.7486 14.9843 39.0595 15.005C39.645 15.0553 40.1896 15.3261 40.5835 15.7627C40.9774 16.1993 41.1912 16.7692 41.1818 17.3575V24.2272L42.6735 26.099C43.3228 26.9143 44.1506 27.5693 45.0931 28.0132C46.0355 28.4571 47.0673 28.6781 48.1086 28.6591C49.137 28.63 50.1464 28.3746 51.0651 27.911C51.9838 27.4474 52.7893 26.787 53.4244 25.9767L54.8195 24.2272V17.2807C54.8188 16.9687 54.8822 16.6599 55.0057 16.3735C55.1292 16.0871 55.3102 15.8292 55.5375 15.6158C55.7648 15.4024 56.0335 15.238 56.3269 15.133C56.6202 15.0279 56.9321 14.9843 57.243 15.005C57.8285 15.0553 58.3731 15.3261 58.767 15.7627C59.1608 16.1993 59.3747 16.7692 59.3653 17.3575V24.3069L65.4511 33.0114C65.7148 33.4278 65.9069 33.8855 66.0194 34.3654C66.185 34.9435 66.2289 35.5497 66.1482 36.1457C66.0675 36.7416 65.864 37.3143 65.5506 37.8273C65.5393 37.8438 65.5288 37.8609 65.5193 37.8785L61.5814 44.0627C61.4781 44.2251 61.3352 44.3586 61.1663 44.4506C60.9973 44.5427 60.8078 44.5903 60.6154 44.589H35.3859C35.195 44.5888 35.0072 44.5405 34.8398 44.4486C34.6725 44.3566 34.531 44.2239 34.4284 44.0627L30.4905 37.8785C30.481 37.8609 30.4706 37.8438 30.4593 37.8273ZM72.6506 74.6821C72.6389 74.6489 72.6246 74.6165 72.608 74.5854L60.982 49.7946C60.89 49.5986 60.7442 49.4329 60.5615 49.317C60.3788 49.2011 60.1669 49.1398 59.9506 49.1403H36.0507C35.8344 49.1398 35.6225 49.2011 35.4398 49.317C35.2571 49.4329 35.1113 49.5986 35.0193 49.7946L23.3933 74.5854C23.3767 74.6165 23.3625 74.6489 23.3507 74.6821C23.103 75.2805 22.9841 75.9244 23.0017 76.5719C23.0193 77.2194 23.1731 77.8559 23.4529 78.4398C23.8262 79.208 24.4079 79.8554 25.1314 80.3082C25.8549 80.7609 26.691 81.0007 27.5442 81H68.4571C69.3098 81.0001 70.1453 80.7601 70.8683 80.3074C71.5913 79.8547 72.1725 79.2075 72.5455 78.4398C72.8258 77.8561 72.9801 77.2197 72.9982 76.5722C73.0163 75.9247 72.8979 75.2807 72.6506 74.6821Z" fill="#50A7E6"/>
</g>
<defs>
<clipPath id="clip0_4992_6469">
<rect width="96" height="96" fill="white"/>
</clipPath>
</defs>
</svg>
