<svg width="80" height="80" viewBox="0 0 80 80" fill="none" xmlns="http://www.w3.org/2000/svg">
<path d="M23.9511 11.2188H8.6665V58.2216H23.9511V11.2188Z" fill="#F2AD22" stroke="black" stroke-width="0.574607" stroke-miterlimit="10"/>
<path d="M70.8964 11.1611H55.6118V58.164H70.8964V11.1611Z" fill="#F2AD22" stroke="black" stroke-width="0.574607" stroke-miterlimit="10"/>
<path d="M55.6118 43.6833V58.1634H23.9509V43.5684L55.6118 43.6833Z" fill="#F2AD22" stroke="black" stroke-width="0.574607" stroke-miterlimit="10"/>
<path d="M23.9511 58.1641H23.8936" stroke="black" stroke-width="0.574607" stroke-miterlimit="10"/>
<path d="M23.9511 43.5684H23.8936" stroke="black" stroke-width="0.574607" stroke-miterlimit="10"/>
<path d="M55.6118 31.501V43.6827L23.9509 43.5677V31.501H55.6118Z" fill="#F2AD22" stroke="black" stroke-width="0.574607" stroke-miterlimit="10"/>
<path d="M23.9511 31.501H23.8936" stroke="black" stroke-width="0.574607" stroke-miterlimit="10"/>
<path d="M55.6118 11.1732V31.7315H23.9509V11.2306C23.9509 11.2306 34.4662 8.50123 55.6118 11.172V11.1732Z" fill="#F2AD22" stroke="black" stroke-width="0.574607" stroke-miterlimit="10"/>
<path d="M14.355 69.0803V28.8578C14.355 28.8578 14.1251 27.4787 12.5162 27.4787H7.84927C7.84927 27.4787 7 27.4787 7 26.4444C7 25.4102 7.91937 25.5251 7.91937 25.5251L12.861 25.4102C12.861 25.4102 16.3086 25.6952 16.3086 27.9384V69.0803C16.3086 69.0803 16.4236 69.9997 15.5042 69.9997C14.5848 69.9997 14.355 69.7698 14.355 69.0803Z" fill="white" stroke="black" stroke-width="0.574607" stroke-miterlimit="10"/>
<path d="M66.4146 69.0803V28.8578C66.4146 28.8578 66.6444 27.4787 68.2533 27.4787C69.8622 27.4787 72.9203 27.4787 72.9203 27.4787C72.9203 27.4787 73.7695 27.4787 73.7695 26.4444C73.7695 25.4102 72.8502 25.5251 72.8502 25.5251L67.9085 25.4102C67.9085 25.4102 64.4609 25.6952 64.4609 27.9384C64.4609 30.1817 64.4609 69.0803 64.4609 69.0803C64.4609 69.0803 64.346 69.9997 65.2653 69.9997C66.1847 69.9997 66.4146 69.7698 66.4146 69.0803Z" fill="white" stroke="black" stroke-width="0.574607" stroke-miterlimit="10"/>
</svg>
