<svg width="96" height="96" viewBox="0 0 96 96" fill="none" xmlns="http://www.w3.org/2000/svg">
<g clip-path="url(#clip0_4992_6458)">
<path d="M32.0909 69C31.447 69 30.9076 68.7813 30.4727 68.344C30.0379 67.9067 29.8197 67.3661 29.8182 66.7222V64.4444C27.9242 64.4444 26.3144 63.7801 24.9886 62.4514C23.6629 61.1227 23 59.5093 23 57.6111V46.2222C23 44.9694 23.4455 43.8974 24.3364 43.006C25.2273 42.1146 26.297 41.6682 27.5455 41.6667C28.7939 41.6651 29.8644 42.1116 30.7568 43.006C31.6492 43.9004 32.0939 44.9725 32.0909 46.2222V55.3333H63.9091V46.2222C63.9091 44.9694 64.3545 43.8974 65.2454 43.006C66.1363 42.1146 67.206 41.6682 68.4545 41.6667C69.703 41.6651 70.7735 42.1116 71.6659 43.006C72.5583 43.9004 73.003 44.9725 73 46.2222V57.6111C73 59.5093 72.3371 61.1227 71.0113 62.4514C69.6856 63.7801 68.0757 64.4444 66.1818 64.4444V66.7222C66.1818 67.3676 65.9636 67.9089 65.5273 68.3463C65.0909 68.7836 64.5515 69.0015 63.9091 69C63.2667 68.9985 62.7273 68.7798 62.2909 68.344C61.8545 67.9082 61.6364 67.3676 61.6364 66.7222V64.4444H34.3636V66.7222C34.3636 67.3676 34.1455 67.9089 33.7091 68.3463C33.2727 68.7836 32.7333 69.0015 32.0909 69ZM36.6364 50.7778V46.2222C36.6364 44.1343 36.0023 42.2642 34.7341 40.6121C33.4659 38.9599 31.8273 37.7929 29.8182 37.1111V34.8333C29.8182 32.9352 30.4811 31.3218 31.8068 29.9931C33.1326 28.6644 34.7424 28 36.6364 28H59.3636C61.2576 28 62.8674 28.6644 64.1932 29.9931C65.5189 31.3218 66.1818 32.9352 66.1818 34.8333V37.1111C64.1364 37.6426 62.4886 38.7534 61.2386 40.4435C59.9886 42.1336 59.3636 44.0598 59.3636 46.2222V50.7778H36.6364Z" fill="#F2AD22"/>
</g>
<defs>
<clipPath id="clip0_4992_6458">
<rect width="96" height="96" fill="white"/>
</clipPath>
</defs>
</svg>
