<svg width="96" height="96" viewBox="0 0 96 96" fill="none" xmlns="http://www.w3.org/2000/svg">
<g clip-path="url(#clip0_4992_6458)">
<path d="M19.999 84C18.8657 84 17.9164 83.616 17.151 82.848C16.3857 82.08 16.0017 81.1307 15.999 80V76C12.6657 76 9.83236 74.8333 7.49902 72.5C5.16569 70.1667 3.99902 67.3333 3.99902 64V44C3.99902 41.8 4.78302 39.9173 6.35102 38.352C7.91902 36.7867 9.80169 36.0027 11.999 36C14.1964 35.9973 16.0804 36.7813 17.651 38.352C19.2217 39.9227 20.0044 41.8053 19.999 44V60H75.999V44C75.999 41.8 76.783 39.9173 78.351 38.352C79.919 36.7867 81.8017 36.0027 83.999 36C86.1964 35.9973 88.0804 36.7813 89.651 38.352C91.2217 39.9227 92.0044 41.8053 91.999 44V64C91.999 67.3333 90.8324 70.1667 88.499 72.5C86.1657 74.8333 83.3324 76 79.999 76V80C79.999 81.1333 79.615 82.084 78.847 82.852C78.079 83.62 77.1297 84.0027 75.999 84C74.8684 83.9973 73.919 83.6133 73.151 82.848C72.383 82.0827 71.999 81.1333 71.999 80V76H23.999V80C23.999 81.1333 23.615 82.084 22.847 82.852C22.079 83.62 21.1297 84.0027 19.999 84ZM27.999 52V44C27.999 40.3333 26.883 37.0493 24.651 34.148C22.419 31.2467 19.535 29.1973 15.999 28V24C15.999 20.6667 17.1657 17.8333 19.499 15.5C21.8324 13.1667 24.6657 12 27.999 12H67.999C71.3324 12 74.1657 13.1667 76.499 15.5C78.8324 17.8333 79.999 20.6667 79.999 24V28C76.399 28.9333 73.499 30.884 71.299 33.852C69.099 36.82 67.999 40.2027 67.999 44V52H27.999Z" fill="#F2AD22"/>
</g>
<defs>
<clipPath id="clip0_4992_6458">
<rect width="96" height="96" fill="white"/>
</clipPath>
</defs>
</svg>
