<svg width="81" height="81" viewBox="0 0 81 81" fill="none" xmlns="http://www.w3.org/2000/svg">
<g clip-path="url(#clip0_1532_213)">
<path d="M47.8146 20.8939C47.4493 21.613 47.0346 22.3012 46.5813 22.9575C42.4975 28.8982 35.4424 32.2213 35.4424 32.2213C35.4424 31.9284 35.4453 31.6433 35.4511 31.3668C35.4511 31.3301 35.453 31.2933 35.454 31.2566C35.6396 23.494 38.0522 21.9755 38.0522 21.9755C42.2085 19.559 42.0422 17.0459 42.0422 17.0459V13.9993L44.3349 12.793L45.867 13.8852L46.0313 14.5203L47.6551 20.7963C47.7547 20.8717 47.8146 20.8939 47.8146 20.8939Z" fill="#50A7E6" stroke="black" stroke-width="0.483291" stroke-miterlimit="10"/>
<path d="M52.9377 4.09277C52.9377 4.09277 52.9377 4.10341 52.9368 4.12564V4.1527C52.9368 4.1643 52.9368 4.17783 52.9358 4.19233C52.9348 4.23293 52.9339 4.27449 52.9329 4.31509C52.9329 4.34022 52.9319 4.36438 52.931 4.38951C52.931 4.39338 52.931 4.39725 52.93 4.40111C52.872 6.00564 52.3491 13.603 47.6554 20.7953C47.2175 20.4609 46.0267 19.0835 46.0267 13.9983L45.8672 13.8842C47.0329 13.1951 47.8148 11.925 47.8148 10.4722V8.0142C50.7378 5.56391 52.9377 4.09277 52.9377 4.09277Z" fill="white" stroke="black" stroke-width="0.483291" stroke-miterlimit="10"/>
<path d="M38.052 21.9761C38.052 21.9761 35.6394 23.4946 35.4538 31.2572C34.7105 31.5994 33.9363 31.9213 33.1282 32.2209C33.1273 32.2209 33.1253 32.2219 33.1244 32.2219C32.932 28.7422 34.089 25.9391 34.089 25.9391C35.3784 21.5547 38.4232 17.3394 41.6979 13.8008C41.8091 13.8733 41.9232 13.939 42.042 13.9999V17.0466C42.042 17.0466 42.2083 19.5597 38.052 21.9761Z" fill="white" stroke="black" stroke-width="0.483291" stroke-miterlimit="10"/>
<path d="M52.9288 4.4502C52.7162 12.7841 49.9672 18.7488 46.5813 22.9564C42.7768 27.6859 38.1682 30.198 35.4511 31.3656C34.0805 31.9553 33.1903 32.2017 33.1284 32.2191C33.9365 31.9195 34.7107 31.5976 35.454 31.2554C35.6396 23.4928 38.0522 21.9743 38.0522 21.9743C42.2085 19.5579 42.0422 17.0448 42.0422 17.0448V13.9981C41.9233 13.9372 41.8093 13.8715 41.6981 13.799C43.7744 11.5555 45.9424 9.58371 47.8147 8.01398V10.472C47.8147 11.9248 47.0327 13.1949 45.867 13.884L46.0265 13.9981C46.0265 14.1759 46.0284 14.3499 46.0313 14.5191C46.1086 19.179 47.2328 20.4723 47.6552 20.7951C52.3025 13.6733 52.8612 6.15525 52.9288 4.4502Z" stroke="black" stroke-width="0.483291" stroke-miterlimit="10"/>
<path d="M47.8146 4.96299V10.4725C47.8146 11.9253 47.0327 13.1954 45.867 13.8845C45.2764 14.2344 44.5872 14.4355 43.8517 14.4355C43.1992 14.4355 42.5845 14.2779 42.0422 13.9986C41.9233 13.9377 41.8093 13.872 41.6981 13.7995C40.6088 13.0929 39.8887 11.8673 39.8887 10.4725V4.96299C39.8887 3.86882 40.3323 2.87807 41.0495 2.16087C41.7667 1.44366 42.7575 1 43.8517 1C46.04 1 47.8146 2.77464 47.8146 4.96299Z" fill="#50A7E6" stroke="black" stroke-width="0.483291" stroke-miterlimit="10"/>
<path d="M52.9317 4.37402C52.8959 6.1593 52.6717 15.9653 51.9709 20.5237C51.3629 24.4741 48.904 32.7848 46.5639 36.7236C45.9279 37.7955 45.3005 38.5437 44.7216 38.7921C42.0151 39.952 37.6636 39.1304 37.6636 39.1304C35.3419 37.3422 33.1245 32.2193 33.1245 32.2193C33.1255 32.2193 33.1274 32.2184 33.1284 32.2184C33.9364 31.9187 34.7107 31.5968 35.454 31.2547C41.2061 28.6082 45.0657 24.7631 47.6551 20.7943C52.3025 13.6725 52.8611 6.15447 52.9288 4.44942C52.9288 4.43202 52.9288 4.41559 52.9298 4.40012C52.9307 4.39626 52.9307 4.39239 52.9307 4.38852C52.9307 4.38369 52.9307 4.37886 52.9317 4.37402Z" fill="white" stroke="black" stroke-width="0.483291" stroke-miterlimit="10"/>
<path d="M37.6639 39.1314C37.6639 39.1314 28.8699 55.225 28 77.1664C28 77.1664 36.7959 82.6759 54.291 77.1664C54.291 77.1664 56.1401 46.7394 46.5642 36.7246L46.1669 37.2881C45.7455 37.8845 45.1481 38.333 44.459 38.5717C42.8515 39.1275 41.1503 39.3566 39.454 39.2474L37.6649 39.1314H37.6639Z" fill="white" stroke="black" stroke-width="0.483291" stroke-miterlimit="10"/>
</g>
<defs>
<clipPath id="clip0_1532_213">
<rect width="80" height="80" fill="white" transform="translate(0.766602 0.582031)"/>
</clipPath>
</defs>
</svg>
